M48
; DRILL file {KiCad 8.0.4} date 2024-08-22T18:10:40-0700
; FORMAT={-:-/ absolute / inch / decimal}
; #@! TF.CreationDate,2024-08-22T18:10:40-07:00
; #@! TF.GenerationSoftware,Kicad,Pcbnew,8.0.4
; #@! TF.FileFunction,Plated,1,2,PTH
FMAT,2
INCH
; #@! TA.AperFunction,Plated,PTH,ComponentDrill
T1C0.0315
; #@! TA.AperFunction,Plated,PTH,ComponentDrill
T2C0.0394
; #@! TA.AperFunction,Plated,PTH,ComponentDrill
T3C0.0402
%
G90
G05
T1
X4.1213Y-1.955
X4.1213Y-2.355
X4.2Y-1.955
X4.2Y-2.355
X4.2787Y-1.955
X4.2787Y-2.355
T2
X3.9Y-1.93
X3.9Y-2.03
X3.9Y-2.13
X3.9Y-2.23
X3.9Y-2.33
X3.9Y-2.43
X3.9Y-2.53
X3.9Y-2.63
X4.4Y-1.93
X4.4Y-2.03
X4.4Y-2.13
X4.4Y-2.23
X4.4Y-2.33
X4.4Y-2.43
X4.4Y-2.53
X4.4Y-2.63
T3
X3.9996Y-2.1818
X4.0Y-2.58
X4.0996Y-2.1818
X4.1Y-2.58
X4.1996Y-2.1818
X4.2Y-2.58
X4.2996Y-2.1818
X4.3Y-2.58
M30
