%TF.GenerationSoftware,KiCad,Pcbnew,8.0.4*%
%TF.CreationDate,2024-08-22T16:07:43-07:00*%
%TF.ProjectId,tmtua,746d7475-612e-46b6-9963-61645f706362,0.1*%
%TF.SameCoordinates,Original*%
%TF.FileFunction,Copper,L2,Bot*%
%TF.FilePolarity,Positive*%
%FSLAX46Y46*%
G04 Gerber Fmt 4.6, Leading zero omitted, Abs format (unit mm)*
G04 Created by KiCad (PCBNEW 8.0.4) date 2024-08-22 16:07:43*
%MOMM*%
%LPD*%
G01*
G04 APERTURE LIST*
%TA.AperFunction,ComponentPad*%
%ADD10R,1.350000X1.350000*%
%TD*%
%TA.AperFunction,ComponentPad*%
%ADD11O,1.350000X1.350000*%
%TD*%
%TA.AperFunction,ComponentPad*%
%ADD12R,1.730000X2.030000*%
%TD*%
%TA.AperFunction,ComponentPad*%
%ADD13O,1.730000X2.030000*%
%TD*%
%TA.AperFunction,ComponentPad*%
%ADD14R,1.700000X1.700000*%
%TD*%
%TA.AperFunction,ComponentPad*%
%ADD15O,1.700000X1.700000*%
%TD*%
G04 APERTURE END LIST*
D10*
%TO.P,J4,1,Pin_1*%
%TO.N,VM*%
X145320000Y-94615000D03*
D11*
%TO.P,J4,2,Pin_2*%
%TO.N,/vfan1*%
X147320000Y-94615000D03*
%TO.P,J4,3,Pin_3*%
%TO.N,+5V*%
X149320000Y-94615000D03*
%TD*%
D12*
%TO.P,CN1,1,Pin_1*%
%TO.N,GND*%
X149850000Y-90216000D03*
D13*
%TO.P,CN1,2,Pin_2*%
%TO.N,/vfan0*%
X147310000Y-90216000D03*
%TO.P,CN1,3,Pin_3*%
%TO.N,/tach0*%
X144770000Y-90216000D03*
%TO.P,CN1,4,Pin_4*%
%TO.N,/pwm0*%
X142230000Y-90216000D03*
%TD*%
D12*
%TO.P,CN2,1,Pin_1*%
%TO.N,GND*%
X149860000Y-100330000D03*
D13*
%TO.P,CN2,2,Pin_2*%
%TO.N,/vfan1*%
X147320000Y-100330000D03*
%TO.P,CN2,3,Pin_3*%
%TO.N,/tach1*%
X144780000Y-100330000D03*
%TO.P,CN2,4,Pin_4*%
%TO.N,/pwm1*%
X142240000Y-100330000D03*
%TD*%
D10*
%TO.P,J3,1,Pin_1*%
%TO.N,VM*%
X145320000Y-84455000D03*
D11*
%TO.P,J3,2,Pin_2*%
%TO.N,/vfan0*%
X147320000Y-84455000D03*
%TO.P,J3,3,Pin_3*%
%TO.N,+5V*%
X149320000Y-84455000D03*
%TD*%
D14*
%TO.P,J2,1,Pin_1*%
%TO.N,VM*%
X152400000Y-83820000D03*
D15*
%TO.P,J2,2,Pin_2*%
%TO.N,GND*%
X152400000Y-86360000D03*
%TO.P,J2,3,Pin_3*%
%TO.N,unconnected-(J2-Pin_3-Pad3)*%
X152400000Y-88900000D03*
%TO.P,J2,4,Pin_4*%
%TO.N,unconnected-(J2-Pin_4-Pad4)*%
X152400000Y-91440000D03*
%TO.P,J2,5,Pin_5*%
%TO.N,unconnected-(J2-Pin_5-Pad5)*%
X152400000Y-93980000D03*
%TO.P,J2,6,Pin_6*%
%TO.N,unconnected-(J2-Pin_6-Pad6)*%
X152400000Y-96520000D03*
%TO.P,J2,7,Pin_7*%
%TO.N,+5V*%
X152400000Y-99060000D03*
%TO.P,J2,8,Pin_8*%
%TO.N,GND*%
X152400000Y-101600000D03*
%TD*%
D14*
%TO.P,J1,1,Pin_1*%
%TO.N,/tach0*%
X139700000Y-83820000D03*
D15*
%TO.P,J1,2,Pin_2*%
%TO.N,unconnected-(J1-Pin_2-Pad2)*%
X139700000Y-86360000D03*
%TO.P,J1,3,Pin_3*%
%TO.N,unconnected-(J1-Pin_3-Pad3)*%
X139700000Y-88900000D03*
%TO.P,J1,4,Pin_4*%
%TO.N,/tach1*%
X139700000Y-91440000D03*
%TO.P,J1,5,Pin_5*%
%TO.N,unconnected-(J1-Pin_5-Pad5)*%
X139700000Y-93980000D03*
%TO.P,J1,6,Pin_6*%
%TO.N,unconnected-(J1-Pin_6-Pad6)*%
X139700000Y-96520000D03*
%TO.P,J1,7,Pin_7*%
%TO.N,/pwm0*%
X139700000Y-99060000D03*
%TO.P,J1,8,Pin_8*%
%TO.N,/pwm1*%
X139700000Y-101600000D03*
%TD*%
%TA.AperFunction,Conductor*%
%TO.N,GND*%
G36*
X151327826Y-83072174D02*
G01*
X151349500Y-83124500D01*
X151349500Y-84689746D01*
X151361133Y-84748232D01*
X151390608Y-84792343D01*
X151405448Y-84814552D01*
X151449560Y-84844027D01*
X151471767Y-84858866D01*
X151471768Y-84858866D01*
X151471769Y-84858867D01*
X151530252Y-84870500D01*
X153095500Y-84870500D01*
X153147826Y-84892174D01*
X153169500Y-84944500D01*
X153169500Y-85351002D01*
X153147826Y-85403328D01*
X153095500Y-85425002D01*
X153056544Y-85413918D01*
X152914799Y-85326155D01*
X152914789Y-85326150D01*
X152716064Y-85249163D01*
X152506566Y-85210000D01*
X152293433Y-85210000D01*
X152083935Y-85249163D01*
X151885210Y-85326150D01*
X151885200Y-85326155D01*
X151782991Y-85389438D01*
X152270590Y-85877037D01*
X152207007Y-85894075D01*
X152092993Y-85959901D01*
X151999901Y-86052993D01*
X151934075Y-86167007D01*
X151917037Y-86230590D01*
X151426835Y-85740388D01*
X151418063Y-85752005D01*
X151418059Y-85752011D01*
X151323064Y-85942787D01*
X151323061Y-85942797D01*
X151264736Y-86147788D01*
X151245073Y-86359996D01*
X151245073Y-86359999D01*
X151264736Y-86572211D01*
X151323061Y-86777202D01*
X151323064Y-86777212D01*
X151418059Y-86967988D01*
X151418059Y-86967989D01*
X151426835Y-86979609D01*
X151917037Y-86489407D01*
X151934075Y-86552993D01*
X151999901Y-86667007D01*
X152092993Y-86760099D01*
X152207007Y-86825925D01*
X152270588Y-86842962D01*
X151782992Y-87330559D01*
X151885200Y-87393844D01*
X151885210Y-87393849D01*
X152083935Y-87470836D01*
X152293433Y-87509999D01*
X152293437Y-87510000D01*
X152506563Y-87510000D01*
X152506566Y-87509999D01*
X152716064Y-87470836D01*
X152914789Y-87393849D01*
X152914799Y-87393844D01*
X153056544Y-87306081D01*
X153112442Y-87296963D01*
X153158416Y-87330041D01*
X153169500Y-87368997D01*
X153169500Y-88016079D01*
X153147826Y-88068405D01*
X153095500Y-88090079D01*
X153048556Y-88073282D01*
X152986453Y-88022317D01*
X152986451Y-88022316D01*
X152986450Y-88022315D01*
X152803954Y-87924768D01*
X152692158Y-87890855D01*
X152605935Y-87864700D01*
X152400000Y-87844417D01*
X152194064Y-87864700D01*
X151996043Y-87924769D01*
X151813549Y-88022315D01*
X151653590Y-88153589D01*
X151653589Y-88153590D01*
X151522315Y-88313549D01*
X151424769Y-88496043D01*
X151364700Y-88694064D01*
X151344417Y-88900000D01*
X151364700Y-89105935D01*
X151372343Y-89131131D01*
X151404874Y-89238373D01*
X151424769Y-89303956D01*
X151522315Y-89486450D01*
X151630499Y-89618274D01*
X151653590Y-89646410D01*
X151813550Y-89777685D01*
X151996046Y-89875232D01*
X152194066Y-89935300D01*
X152400000Y-89955583D01*
X152605934Y-89935300D01*
X152803954Y-89875232D01*
X152986450Y-89777685D01*
X153013844Y-89755204D01*
X153048555Y-89726717D01*
X153102753Y-89710275D01*
X153152702Y-89736974D01*
X153169500Y-89783919D01*
X153169500Y-90556079D01*
X153147826Y-90608405D01*
X153095500Y-90630079D01*
X153048556Y-90613282D01*
X152986453Y-90562317D01*
X152986451Y-90562316D01*
X152986450Y-90562315D01*
X152803954Y-90464768D01*
X152692158Y-90430855D01*
X152605935Y-90404700D01*
X152400000Y-90384417D01*
X152194064Y-90404700D01*
X151996043Y-90464769D01*
X151813549Y-90562315D01*
X151653590Y-90693589D01*
X151653589Y-90693590D01*
X151522315Y-90853549D01*
X151424769Y-91036043D01*
X151364700Y-91234064D01*
X151344417Y-91440000D01*
X151364700Y-91645935D01*
X151424769Y-91843956D01*
X151522315Y-92026450D01*
X151630499Y-92158274D01*
X151653590Y-92186410D01*
X151813550Y-92317685D01*
X151996046Y-92415232D01*
X152194066Y-92475300D01*
X152400000Y-92495583D01*
X152605934Y-92475300D01*
X152803954Y-92415232D01*
X152986450Y-92317685D01*
X153048555Y-92266716D01*
X153102753Y-92250275D01*
X153152702Y-92276974D01*
X153169500Y-92323919D01*
X153169500Y-93096079D01*
X153147826Y-93148405D01*
X153095500Y-93170079D01*
X153048556Y-93153282D01*
X152986453Y-93102317D01*
X152986451Y-93102316D01*
X152986450Y-93102315D01*
X152803954Y-93004768D01*
X152692158Y-92970855D01*
X152605935Y-92944700D01*
X152400000Y-92924417D01*
X152194064Y-92944700D01*
X151996043Y-93004769D01*
X151813549Y-93102315D01*
X151653590Y-93233589D01*
X151653589Y-93233590D01*
X151522315Y-93393549D01*
X151424769Y-93576043D01*
X151364700Y-93774064D01*
X151344417Y-93980000D01*
X151364700Y-94185935D01*
X151424769Y-94383956D01*
X151522315Y-94566450D01*
X151630499Y-94698274D01*
X151653590Y-94726410D01*
X151813550Y-94857685D01*
X151996046Y-94955232D01*
X152194066Y-95015300D01*
X152400000Y-95035583D01*
X152605934Y-95015300D01*
X152803954Y-94955232D01*
X152986450Y-94857685D01*
X153048555Y-94806716D01*
X153102753Y-94790275D01*
X153152702Y-94816974D01*
X153169500Y-94863919D01*
X153169500Y-95636079D01*
X153147826Y-95688405D01*
X153095500Y-95710079D01*
X153048556Y-95693282D01*
X152986453Y-95642317D01*
X152986451Y-95642316D01*
X152986450Y-95642315D01*
X152803954Y-95544768D01*
X152692158Y-95510855D01*
X152605935Y-95484700D01*
X152400000Y-95464417D01*
X152194064Y-95484700D01*
X151996043Y-95544769D01*
X151813549Y-95642315D01*
X151653590Y-95773589D01*
X151653589Y-95773590D01*
X151522315Y-95933549D01*
X151424769Y-96116043D01*
X151364700Y-96314064D01*
X151344417Y-96520000D01*
X151364700Y-96725935D01*
X151424769Y-96923956D01*
X151522315Y-97106450D01*
X151630499Y-97238274D01*
X151653590Y-97266410D01*
X151813550Y-97397685D01*
X151996046Y-97495232D01*
X152194066Y-97555300D01*
X152400000Y-97575583D01*
X152605934Y-97555300D01*
X152803954Y-97495232D01*
X152986450Y-97397685D01*
X153048555Y-97346716D01*
X153102753Y-97330275D01*
X153152702Y-97356974D01*
X153169500Y-97403919D01*
X153169500Y-98176079D01*
X153147826Y-98228405D01*
X153095500Y-98250079D01*
X153048556Y-98233282D01*
X152986453Y-98182317D01*
X152986451Y-98182316D01*
X152986450Y-98182315D01*
X152803954Y-98084768D01*
X152692158Y-98050855D01*
X152605935Y-98024700D01*
X152400000Y-98004417D01*
X152194064Y-98024700D01*
X151996043Y-98084769D01*
X151813549Y-98182315D01*
X151653590Y-98313589D01*
X151653589Y-98313590D01*
X151522315Y-98473549D01*
X151424769Y-98656043D01*
X151364700Y-98854064D01*
X151344417Y-99060000D01*
X151364700Y-99265935D01*
X151424769Y-99463956D01*
X151522315Y-99646450D01*
X151630499Y-99778274D01*
X151653590Y-99806410D01*
X151813550Y-99937685D01*
X151996046Y-100035232D01*
X152194066Y-100095300D01*
X152400000Y-100115583D01*
X152605934Y-100095300D01*
X152803954Y-100035232D01*
X152986450Y-99937685D01*
X153048555Y-99886716D01*
X153102753Y-99870275D01*
X153152702Y-99896974D01*
X153169500Y-99943919D01*
X153169500Y-100591002D01*
X153147826Y-100643328D01*
X153095500Y-100665002D01*
X153056544Y-100653918D01*
X152914799Y-100566155D01*
X152914789Y-100566150D01*
X152716064Y-100489163D01*
X152506566Y-100450000D01*
X152293433Y-100450000D01*
X152083935Y-100489163D01*
X151885210Y-100566150D01*
X151885200Y-100566155D01*
X151782991Y-100629438D01*
X152270590Y-101117037D01*
X152207007Y-101134075D01*
X152092993Y-101199901D01*
X151999901Y-101292993D01*
X151934075Y-101407007D01*
X151917037Y-101470590D01*
X151426835Y-100980388D01*
X151418063Y-100992005D01*
X151418059Y-100992011D01*
X151323064Y-101182787D01*
X151323061Y-101182797D01*
X151264736Y-101387788D01*
X151245073Y-101599996D01*
X151245073Y-101600000D01*
X151264736Y-101812211D01*
X151323061Y-102017202D01*
X151323064Y-102017212D01*
X151418059Y-102207988D01*
X151418063Y-102207994D01*
X151450468Y-102250905D01*
X151464705Y-102305723D01*
X151436010Y-102354553D01*
X151391415Y-102369500D01*
X140583920Y-102369500D01*
X140531594Y-102347826D01*
X140509920Y-102295500D01*
X140526717Y-102248555D01*
X140560009Y-102207988D01*
X140577685Y-102186450D01*
X140675232Y-102003954D01*
X140735300Y-101805934D01*
X140755583Y-101600000D01*
X140735300Y-101394066D01*
X140675232Y-101196046D01*
X140577685Y-101013550D01*
X140446410Y-100853590D01*
X140429850Y-100840000D01*
X140286450Y-100722315D01*
X140103956Y-100624769D01*
X140103955Y-100624768D01*
X140103954Y-100624768D01*
X139972667Y-100584943D01*
X139905935Y-100564700D01*
X139700000Y-100544417D01*
X139494064Y-100564700D01*
X139296043Y-100624769D01*
X139113546Y-100722317D01*
X139051444Y-100773282D01*
X138997246Y-100789723D01*
X138947297Y-100763023D01*
X138930500Y-100716079D01*
X138930500Y-99943919D01*
X138952174Y-99891593D01*
X139004500Y-99869919D01*
X139051445Y-99886717D01*
X139113545Y-99937682D01*
X139113548Y-99937684D01*
X139113550Y-99937685D01*
X139296046Y-100035232D01*
X139494066Y-100095300D01*
X139700000Y-100115583D01*
X139905934Y-100095300D01*
X139972667Y-100075057D01*
X141174500Y-100075057D01*
X141174500Y-100584943D01*
X141182422Y-100624768D01*
X141215445Y-100790789D01*
X141215447Y-100790795D01*
X141295767Y-100984703D01*
X141412372Y-101159216D01*
X141560784Y-101307628D01*
X141735297Y-101424233D01*
X141929205Y-101504553D01*
X142135057Y-101545500D01*
X142135059Y-101545500D01*
X142344941Y-101545500D01*
X142344943Y-101545500D01*
X142550795Y-101504553D01*
X142744703Y-101424233D01*
X142919216Y-101307628D01*
X143067628Y-101159216D01*
X143184233Y-100984703D01*
X143264553Y-100790795D01*
X143305500Y-100584943D01*
X143305500Y-100075057D01*
X143714500Y-100075057D01*
X143714500Y-100584943D01*
X143722422Y-100624768D01*
X143755445Y-100790789D01*
X143755447Y-100790795D01*
X143835767Y-100984703D01*
X143952372Y-101159216D01*
X144100784Y-101307628D01*
X144275297Y-101424233D01*
X144469205Y-101504553D01*
X144675057Y-101545500D01*
X144675059Y-101545500D01*
X144884941Y-101545500D01*
X144884943Y-101545500D01*
X145090795Y-101504553D01*
X145284703Y-101424233D01*
X145459216Y-101307628D01*
X145607628Y-101159216D01*
X145724233Y-100984703D01*
X145804553Y-100790795D01*
X145845500Y-100584943D01*
X145845500Y-100075057D01*
X146254500Y-100075057D01*
X146254500Y-100584943D01*
X146262422Y-100624768D01*
X146295445Y-100790789D01*
X146295447Y-100790795D01*
X146375767Y-100984703D01*
X146492372Y-101159216D01*
X146640784Y-101307628D01*
X146815297Y-101424233D01*
X147009205Y-101504553D01*
X147215057Y-101545500D01*
X147215059Y-101545500D01*
X147424941Y-101545500D01*
X147424943Y-101545500D01*
X147630795Y-101504553D01*
X147824703Y-101424233D01*
X147999216Y-101307628D01*
X148147628Y-101159216D01*
X148264233Y-100984703D01*
X148344553Y-100790795D01*
X148385500Y-100584943D01*
X148385500Y-100075057D01*
X148344553Y-99869205D01*
X148264233Y-99675297D01*
X148147628Y-99500784D01*
X147999216Y-99352372D01*
X147876250Y-99270210D01*
X148695000Y-99270210D01*
X148695000Y-100080000D01*
X149415440Y-100080000D01*
X149384755Y-100133147D01*
X149350000Y-100262857D01*
X149350000Y-100397143D01*
X149384755Y-100526853D01*
X149415440Y-100580000D01*
X148695001Y-100580000D01*
X148695001Y-101389792D01*
X148697908Y-101414868D01*
X148697910Y-101414874D01*
X148743213Y-101517478D01*
X148822521Y-101596786D01*
X148925124Y-101642089D01*
X148925123Y-101642089D01*
X148950210Y-101644999D01*
X149610000Y-101644999D01*
X149610000Y-100774560D01*
X149663147Y-100805245D01*
X149792857Y-100840000D01*
X149927143Y-100840000D01*
X150056853Y-100805245D01*
X150110000Y-100774560D01*
X150110000Y-101644999D01*
X150769792Y-101644999D01*
X150794868Y-101642091D01*
X150794874Y-101642089D01*
X150897478Y-101596786D01*
X150976786Y-101517478D01*
X151022089Y-101414875D01*
X151025000Y-101389789D01*
X151025000Y-100580000D01*
X150304560Y-100580000D01*
X150335245Y-100526853D01*
X150370000Y-100397143D01*
X150370000Y-100262857D01*
X150335245Y-100133147D01*
X150304560Y-100080000D01*
X151024999Y-100080000D01*
X151024999Y-99270207D01*
X151022091Y-99245131D01*
X151022089Y-99245125D01*
X150976786Y-99142521D01*
X150897478Y-99063213D01*
X150794875Y-99017910D01*
X150794876Y-99017910D01*
X150769789Y-99015000D01*
X150110000Y-99015000D01*
X150110000Y-99885439D01*
X150056853Y-99854755D01*
X149927143Y-99820000D01*
X149792857Y-99820000D01*
X149663147Y-99854755D01*
X149610000Y-99885439D01*
X149610000Y-99015000D01*
X148950207Y-99015000D01*
X148925131Y-99017908D01*
X148925125Y-99017910D01*
X148822521Y-99063213D01*
X148743213Y-99142521D01*
X148697910Y-99245124D01*
X148695000Y-99270210D01*
X147876250Y-99270210D01*
X147876246Y-99270207D01*
X147824703Y-99235767D01*
X147630795Y-99155447D01*
X147630789Y-99155445D01*
X147492938Y-99128025D01*
X147424943Y-99114500D01*
X147215057Y-99114500D01*
X147156699Y-99126108D01*
X147009210Y-99155445D01*
X147009204Y-99155447D01*
X146815296Y-99235767D01*
X146640784Y-99352371D01*
X146640783Y-99352373D01*
X146492373Y-99500783D01*
X146492371Y-99500784D01*
X146375767Y-99675296D01*
X146295447Y-99869204D01*
X146295445Y-99869210D01*
X146262422Y-100035230D01*
X146254500Y-100075057D01*
X145845500Y-100075057D01*
X145804553Y-99869205D01*
X145724233Y-99675297D01*
X145607628Y-99500784D01*
X145459216Y-99352372D01*
X145336246Y-99270207D01*
X145284703Y-99235767D01*
X145090795Y-99155447D01*
X145090789Y-99155445D01*
X144952938Y-99128025D01*
X144884943Y-99114500D01*
X144675057Y-99114500D01*
X144616699Y-99126108D01*
X144469210Y-99155445D01*
X144469204Y-99155447D01*
X144275296Y-99235767D01*
X144100784Y-99352371D01*
X144100783Y-99352373D01*
X143952373Y-99500783D01*
X143952371Y-99500784D01*
X143835767Y-99675296D01*
X143755447Y-99869204D01*
X143755445Y-99869210D01*
X143722422Y-100035230D01*
X143714500Y-100075057D01*
X143305500Y-100075057D01*
X143264553Y-99869205D01*
X143184233Y-99675297D01*
X143067628Y-99500784D01*
X142919216Y-99352372D01*
X142796246Y-99270207D01*
X142744703Y-99235767D01*
X142550795Y-99155447D01*
X142550789Y-99155445D01*
X142412938Y-99128025D01*
X142344943Y-99114500D01*
X142135057Y-99114500D01*
X142076699Y-99126108D01*
X141929210Y-99155445D01*
X141929204Y-99155447D01*
X141735296Y-99235767D01*
X141560784Y-99352371D01*
X141560783Y-99352373D01*
X141412373Y-99500783D01*
X141412371Y-99500784D01*
X141295767Y-99675296D01*
X141215447Y-99869204D01*
X141215445Y-99869210D01*
X141182422Y-100035230D01*
X141174500Y-100075057D01*
X139972667Y-100075057D01*
X140103954Y-100035232D01*
X140286450Y-99937685D01*
X140446410Y-99806410D01*
X140577685Y-99646450D01*
X140675232Y-99463954D01*
X140735300Y-99265934D01*
X140755583Y-99060000D01*
X140735300Y-98854066D01*
X140675232Y-98656046D01*
X140577685Y-98473550D01*
X140446410Y-98313590D01*
X140286450Y-98182315D01*
X140103954Y-98084768D01*
X139992158Y-98050855D01*
X139905935Y-98024700D01*
X139700000Y-98004417D01*
X139494064Y-98024700D01*
X139296043Y-98084769D01*
X139113546Y-98182317D01*
X139051444Y-98233282D01*
X138997246Y-98249723D01*
X138947297Y-98223023D01*
X138930500Y-98176079D01*
X138930500Y-97403919D01*
X138952174Y-97351593D01*
X139004500Y-97329919D01*
X139051445Y-97346717D01*
X139113545Y-97397682D01*
X139113548Y-97397684D01*
X139113550Y-97397685D01*
X139296046Y-97495232D01*
X139494066Y-97555300D01*
X139700000Y-97575583D01*
X139905934Y-97555300D01*
X140103954Y-97495232D01*
X140286450Y-97397685D01*
X140446410Y-97266410D01*
X140577685Y-97106450D01*
X140675232Y-96923954D01*
X140735300Y-96725934D01*
X140755583Y-96520000D01*
X140735300Y-96314066D01*
X140675232Y-96116046D01*
X140577685Y-95933550D01*
X140446410Y-95773590D01*
X140286450Y-95642315D01*
X140103954Y-95544768D01*
X139992158Y-95510855D01*
X139905935Y-95484700D01*
X139700000Y-95464417D01*
X139494064Y-95484700D01*
X139296043Y-95544769D01*
X139113546Y-95642317D01*
X139051444Y-95693282D01*
X138997246Y-95709723D01*
X138947297Y-95683023D01*
X138930500Y-95636079D01*
X138930500Y-94863919D01*
X138952174Y-94811593D01*
X139004500Y-94789919D01*
X139051445Y-94806717D01*
X139113545Y-94857682D01*
X139113548Y-94857684D01*
X139113550Y-94857685D01*
X139296046Y-94955232D01*
X139494066Y-95015300D01*
X139700000Y-95035583D01*
X139905934Y-95015300D01*
X140103954Y-94955232D01*
X140286450Y-94857685D01*
X140446410Y-94726410D01*
X140577685Y-94566450D01*
X140675232Y-94383954D01*
X140735300Y-94185934D01*
X140755583Y-93980000D01*
X140749698Y-93920253D01*
X144444500Y-93920253D01*
X144444500Y-95309746D01*
X144456133Y-95368232D01*
X144485608Y-95412343D01*
X144500448Y-95434552D01*
X144526912Y-95452235D01*
X144566767Y-95478866D01*
X144566768Y-95478866D01*
X144566769Y-95478867D01*
X144625252Y-95490500D01*
X144625254Y-95490500D01*
X146014746Y-95490500D01*
X146014748Y-95490500D01*
X146073231Y-95478867D01*
X146139552Y-95434552D01*
X146183867Y-95368231D01*
X146195500Y-95309748D01*
X146195500Y-94615000D01*
X146439678Y-94615000D01*
X146451387Y-94726409D01*
X146458916Y-94798034D01*
X146515784Y-94973057D01*
X146607802Y-95132436D01*
X146607805Y-95132441D01*
X146730952Y-95269209D01*
X146879832Y-95377377D01*
X146879839Y-95377381D01*
X147047966Y-95452236D01*
X147227981Y-95490500D01*
X147227982Y-95490500D01*
X147412018Y-95490500D01*
X147412019Y-95490500D01*
X147592034Y-95452236D01*
X147760161Y-95377381D01*
X147909050Y-95269207D01*
X148032195Y-95132440D01*
X148124214Y-94973059D01*
X148130007Y-94955232D01*
X148174929Y-94816974D01*
X148181085Y-94798029D01*
X148200322Y-94615000D01*
X148439678Y-94615000D01*
X148451387Y-94726409D01*
X148458916Y-94798034D01*
X148515784Y-94973057D01*
X148607802Y-95132436D01*
X148607805Y-95132441D01*
X148730952Y-95269209D01*
X148879832Y-95377377D01*
X148879839Y-95377381D01*
X149047966Y-95452236D01*
X149227981Y-95490500D01*
X149227982Y-95490500D01*
X149412018Y-95490500D01*
X149412019Y-95490500D01*
X149592034Y-95452236D01*
X149760161Y-95377381D01*
X149909050Y-95269207D01*
X150032195Y-95132440D01*
X150124214Y-94973059D01*
X150130007Y-94955232D01*
X150174929Y-94816974D01*
X150181085Y-94798029D01*
X150200322Y-94615000D01*
X150181085Y-94431971D01*
X150165483Y-94383954D01*
X150124215Y-94256942D01*
X150032197Y-94097563D01*
X150032194Y-94097558D01*
X149909047Y-93960790D01*
X149760167Y-93852622D01*
X149760160Y-93852618D01*
X149592035Y-93777764D01*
X149592033Y-93777763D01*
X149450282Y-93747633D01*
X149412019Y-93739500D01*
X149227981Y-93739500D01*
X149196425Y-93746207D01*
X149047966Y-93777763D01*
X149047964Y-93777764D01*
X148879839Y-93852618D01*
X148879832Y-93852622D01*
X148730952Y-93960790D01*
X148607805Y-94097558D01*
X148607802Y-94097563D01*
X148515784Y-94256942D01*
X148458916Y-94431965D01*
X148458915Y-94431969D01*
X148458915Y-94431971D01*
X148439678Y-94615000D01*
X148200322Y-94615000D01*
X148181085Y-94431971D01*
X148165483Y-94383954D01*
X148124215Y-94256942D01*
X148032197Y-94097563D01*
X148032194Y-94097558D01*
X147909047Y-93960790D01*
X147760167Y-93852622D01*
X147760160Y-93852618D01*
X147592035Y-93777764D01*
X147592033Y-93777763D01*
X147450282Y-93747633D01*
X147412019Y-93739500D01*
X147227981Y-93739500D01*
X147196425Y-93746207D01*
X147047966Y-93777763D01*
X147047964Y-93777764D01*
X146879839Y-93852618D01*
X146879832Y-93852622D01*
X146730952Y-93960790D01*
X146607805Y-94097558D01*
X146607802Y-94097563D01*
X146515784Y-94256942D01*
X146458916Y-94431965D01*
X146458915Y-94431969D01*
X146458915Y-94431971D01*
X146439678Y-94615000D01*
X146195500Y-94615000D01*
X146195500Y-93920252D01*
X146183867Y-93861769D01*
X146177752Y-93852618D01*
X146169027Y-93839560D01*
X146139552Y-93795448D01*
X146117343Y-93780608D01*
X146073232Y-93751133D01*
X146073233Y-93751133D01*
X146043989Y-93745316D01*
X146014748Y-93739500D01*
X144625252Y-93739500D01*
X144596010Y-93745316D01*
X144566767Y-93751133D01*
X144500449Y-93795447D01*
X144500447Y-93795449D01*
X144456133Y-93861767D01*
X144444500Y-93920253D01*
X140749698Y-93920253D01*
X140735300Y-93774066D01*
X140675232Y-93576046D01*
X140577685Y-93393550D01*
X140446410Y-93233590D01*
X140286450Y-93102315D01*
X140103954Y-93004768D01*
X139992158Y-92970855D01*
X139905935Y-92944700D01*
X139700000Y-92924417D01*
X139494064Y-92944700D01*
X139296043Y-93004769D01*
X139113546Y-93102317D01*
X139051444Y-93153282D01*
X138997246Y-93169723D01*
X138947297Y-93143023D01*
X138930500Y-93096079D01*
X138930500Y-92323919D01*
X138952174Y-92271593D01*
X139004500Y-92249919D01*
X139051445Y-92266717D01*
X139113545Y-92317682D01*
X139113548Y-92317684D01*
X139113550Y-92317685D01*
X139296046Y-92415232D01*
X139494066Y-92475300D01*
X139700000Y-92495583D01*
X139905934Y-92475300D01*
X140103954Y-92415232D01*
X140286450Y-92317685D01*
X140446410Y-92186410D01*
X140577685Y-92026450D01*
X140675232Y-91843954D01*
X140735300Y-91645934D01*
X140755583Y-91440000D01*
X140735300Y-91234066D01*
X140675232Y-91036046D01*
X140577685Y-90853550D01*
X140446410Y-90693590D01*
X140286450Y-90562315D01*
X140103954Y-90464768D01*
X139992158Y-90430855D01*
X139905935Y-90404700D01*
X139700000Y-90384417D01*
X139494064Y-90404700D01*
X139296043Y-90464769D01*
X139113546Y-90562317D01*
X139051444Y-90613282D01*
X138997246Y-90629723D01*
X138947297Y-90603023D01*
X138930500Y-90556079D01*
X138930500Y-89961058D01*
X141164500Y-89961058D01*
X141164500Y-90470941D01*
X141205445Y-90676789D01*
X141205447Y-90676795D01*
X141285767Y-90870703D01*
X141402372Y-91045216D01*
X141550784Y-91193628D01*
X141725297Y-91310233D01*
X141919205Y-91390553D01*
X142125057Y-91431500D01*
X142125059Y-91431500D01*
X142334941Y-91431500D01*
X142334943Y-91431500D01*
X142540795Y-91390553D01*
X142734703Y-91310233D01*
X142909216Y-91193628D01*
X143057628Y-91045216D01*
X143174233Y-90870703D01*
X143254553Y-90676795D01*
X143295500Y-90470943D01*
X143295500Y-89961058D01*
X143704500Y-89961058D01*
X143704500Y-90470941D01*
X143745445Y-90676789D01*
X143745447Y-90676795D01*
X143825767Y-90870703D01*
X143942372Y-91045216D01*
X144090784Y-91193628D01*
X144265297Y-91310233D01*
X144459205Y-91390553D01*
X144665057Y-91431500D01*
X144665059Y-91431500D01*
X144874941Y-91431500D01*
X144874943Y-91431500D01*
X145080795Y-91390553D01*
X145274703Y-91310233D01*
X145449216Y-91193628D01*
X145597628Y-91045216D01*
X145714233Y-90870703D01*
X145794553Y-90676795D01*
X145835500Y-90470943D01*
X145835500Y-89961058D01*
X146244500Y-89961058D01*
X146244500Y-90470941D01*
X146285445Y-90676789D01*
X146285447Y-90676795D01*
X146365767Y-90870703D01*
X146482372Y-91045216D01*
X146630784Y-91193628D01*
X146805297Y-91310233D01*
X146999205Y-91390553D01*
X147205057Y-91431500D01*
X147205059Y-91431500D01*
X147414941Y-91431500D01*
X147414943Y-91431500D01*
X147620795Y-91390553D01*
X147814703Y-91310233D01*
X147989216Y-91193628D01*
X148137628Y-91045216D01*
X148254233Y-90870703D01*
X148334553Y-90676795D01*
X148375500Y-90470943D01*
X148375500Y-89961057D01*
X148334553Y-89755205D01*
X148254233Y-89561297D01*
X148137628Y-89386784D01*
X147989216Y-89238372D01*
X147866250Y-89156210D01*
X148685000Y-89156210D01*
X148685000Y-89966000D01*
X149405440Y-89966000D01*
X149374755Y-90019147D01*
X149340000Y-90148857D01*
X149340000Y-90283143D01*
X149374755Y-90412853D01*
X149405440Y-90466000D01*
X148685001Y-90466000D01*
X148685001Y-91275792D01*
X148687908Y-91300868D01*
X148687910Y-91300874D01*
X148733213Y-91403478D01*
X148812521Y-91482786D01*
X148915124Y-91528089D01*
X148915123Y-91528089D01*
X148940210Y-91530999D01*
X149600000Y-91530999D01*
X149600000Y-90660560D01*
X149653147Y-90691245D01*
X149782857Y-90726000D01*
X149917143Y-90726000D01*
X150046853Y-90691245D01*
X150100000Y-90660560D01*
X150100000Y-91530999D01*
X150759792Y-91530999D01*
X150784868Y-91528091D01*
X150784874Y-91528089D01*
X150887478Y-91482786D01*
X150966786Y-91403478D01*
X151012089Y-91300875D01*
X151015000Y-91275789D01*
X151015000Y-90466000D01*
X150294560Y-90466000D01*
X150325245Y-90412853D01*
X150360000Y-90283143D01*
X150360000Y-90148857D01*
X150325245Y-90019147D01*
X150294560Y-89966000D01*
X151014999Y-89966000D01*
X151014999Y-89156207D01*
X151012091Y-89131131D01*
X151012089Y-89131125D01*
X150966786Y-89028521D01*
X150887478Y-88949213D01*
X150784875Y-88903910D01*
X150784876Y-88903910D01*
X150759789Y-88901000D01*
X150100000Y-88901000D01*
X150100000Y-89771439D01*
X150046853Y-89740755D01*
X149917143Y-89706000D01*
X149782857Y-89706000D01*
X149653147Y-89740755D01*
X149600000Y-89771439D01*
X149600000Y-88901000D01*
X148940207Y-88901000D01*
X148915131Y-88903908D01*
X148915125Y-88903910D01*
X148812521Y-88949213D01*
X148733213Y-89028521D01*
X148687910Y-89131124D01*
X148685000Y-89156210D01*
X147866250Y-89156210D01*
X147866246Y-89156207D01*
X147814703Y-89121767D01*
X147620795Y-89041447D01*
X147620789Y-89041445D01*
X147482938Y-89014025D01*
X147414943Y-89000500D01*
X147205057Y-89000500D01*
X147146699Y-89012108D01*
X146999210Y-89041445D01*
X146999204Y-89041447D01*
X146805296Y-89121767D01*
X146630784Y-89238371D01*
X146630783Y-89238373D01*
X146482373Y-89386783D01*
X146482371Y-89386784D01*
X146365767Y-89561296D01*
X146285447Y-89755204D01*
X146285445Y-89755210D01*
X146244500Y-89961058D01*
X145835500Y-89961058D01*
X145835500Y-89961057D01*
X145794553Y-89755205D01*
X145714233Y-89561297D01*
X145597628Y-89386784D01*
X145449216Y-89238372D01*
X145326246Y-89156207D01*
X145274703Y-89121767D01*
X145080795Y-89041447D01*
X145080789Y-89041445D01*
X144942938Y-89014025D01*
X144874943Y-89000500D01*
X144665057Y-89000500D01*
X144606699Y-89012108D01*
X144459210Y-89041445D01*
X144459204Y-89041447D01*
X144265296Y-89121767D01*
X144090784Y-89238371D01*
X144090783Y-89238373D01*
X143942373Y-89386783D01*
X143942371Y-89386784D01*
X143825767Y-89561296D01*
X143745447Y-89755204D01*
X143745445Y-89755210D01*
X143704500Y-89961058D01*
X143295500Y-89961058D01*
X143295500Y-89961057D01*
X143254553Y-89755205D01*
X143174233Y-89561297D01*
X143057628Y-89386784D01*
X142909216Y-89238372D01*
X142786246Y-89156207D01*
X142734703Y-89121767D01*
X142540795Y-89041447D01*
X142540789Y-89041445D01*
X142402938Y-89014025D01*
X142334943Y-89000500D01*
X142125057Y-89000500D01*
X142066699Y-89012108D01*
X141919210Y-89041445D01*
X141919204Y-89041447D01*
X141725296Y-89121767D01*
X141550784Y-89238371D01*
X141550783Y-89238373D01*
X141402373Y-89386783D01*
X141402371Y-89386784D01*
X141285767Y-89561296D01*
X141205447Y-89755204D01*
X141205445Y-89755210D01*
X141164500Y-89961058D01*
X138930500Y-89961058D01*
X138930500Y-89783919D01*
X138952174Y-89731593D01*
X139004500Y-89709919D01*
X139051445Y-89726717D01*
X139113545Y-89777682D01*
X139113548Y-89777684D01*
X139113550Y-89777685D01*
X139296046Y-89875232D01*
X139494066Y-89935300D01*
X139700000Y-89955583D01*
X139905934Y-89935300D01*
X140103954Y-89875232D01*
X140286450Y-89777685D01*
X140446410Y-89646410D01*
X140577685Y-89486450D01*
X140675232Y-89303954D01*
X140735300Y-89105934D01*
X140755583Y-88900000D01*
X140735300Y-88694066D01*
X140675232Y-88496046D01*
X140577685Y-88313550D01*
X140446410Y-88153590D01*
X140286450Y-88022315D01*
X140103954Y-87924768D01*
X139992158Y-87890855D01*
X139905935Y-87864700D01*
X139700000Y-87844417D01*
X139494064Y-87864700D01*
X139296043Y-87924769D01*
X139113546Y-88022317D01*
X139051444Y-88073282D01*
X138997246Y-88089723D01*
X138947297Y-88063023D01*
X138930500Y-88016079D01*
X138930500Y-87243919D01*
X138952174Y-87191593D01*
X139004500Y-87169919D01*
X139051445Y-87186717D01*
X139113545Y-87237682D01*
X139113548Y-87237684D01*
X139113550Y-87237685D01*
X139296046Y-87335232D01*
X139494066Y-87395300D01*
X139700000Y-87415583D01*
X139905934Y-87395300D01*
X140103954Y-87335232D01*
X140286450Y-87237685D01*
X140446410Y-87106410D01*
X140577685Y-86946450D01*
X140675232Y-86763954D01*
X140735300Y-86565934D01*
X140755583Y-86360000D01*
X140735300Y-86154066D01*
X140675232Y-85956046D01*
X140577685Y-85773550D01*
X140446410Y-85613590D01*
X140286450Y-85482315D01*
X140103954Y-85384768D01*
X139992158Y-85350855D01*
X139905935Y-85324700D01*
X139700000Y-85304417D01*
X139494064Y-85324700D01*
X139296043Y-85384769D01*
X139113546Y-85482317D01*
X139051444Y-85533282D01*
X138997246Y-85549723D01*
X138947297Y-85523023D01*
X138930500Y-85476079D01*
X138930500Y-84944500D01*
X138952174Y-84892174D01*
X139004500Y-84870500D01*
X140569746Y-84870500D01*
X140569748Y-84870500D01*
X140628231Y-84858867D01*
X140694552Y-84814552D01*
X140738867Y-84748231D01*
X140750500Y-84689748D01*
X140750500Y-83760253D01*
X144444500Y-83760253D01*
X144444500Y-85149746D01*
X144456133Y-85208232D01*
X144483483Y-85249163D01*
X144500448Y-85274552D01*
X144526912Y-85292235D01*
X144566767Y-85318866D01*
X144566768Y-85318866D01*
X144566769Y-85318867D01*
X144625252Y-85330500D01*
X144625254Y-85330500D01*
X146014746Y-85330500D01*
X146014748Y-85330500D01*
X146073231Y-85318867D01*
X146139552Y-85274552D01*
X146183867Y-85208231D01*
X146195500Y-85149748D01*
X146195500Y-84455000D01*
X146439678Y-84455000D01*
X146458916Y-84638034D01*
X146515784Y-84813057D01*
X146607802Y-84972436D01*
X146607805Y-84972441D01*
X146730952Y-85109209D01*
X146879832Y-85217377D01*
X146879839Y-85217381D01*
X147047966Y-85292236D01*
X147227981Y-85330500D01*
X147227982Y-85330500D01*
X147412018Y-85330500D01*
X147412019Y-85330500D01*
X147592034Y-85292236D01*
X147760161Y-85217381D01*
X147770321Y-85210000D01*
X147909047Y-85109209D01*
X147909046Y-85109209D01*
X147909050Y-85109207D01*
X148032195Y-84972440D01*
X148124214Y-84813059D01*
X148181085Y-84638029D01*
X148200322Y-84455000D01*
X148439678Y-84455000D01*
X148458916Y-84638034D01*
X148515784Y-84813057D01*
X148607802Y-84972436D01*
X148607805Y-84972441D01*
X148730952Y-85109209D01*
X148879832Y-85217377D01*
X148879839Y-85217381D01*
X149047966Y-85292236D01*
X149227981Y-85330500D01*
X149227982Y-85330500D01*
X149412018Y-85330500D01*
X149412019Y-85330500D01*
X149592034Y-85292236D01*
X149760161Y-85217381D01*
X149770321Y-85210000D01*
X149909047Y-85109209D01*
X149909046Y-85109209D01*
X149909050Y-85109207D01*
X150032195Y-84972440D01*
X150124214Y-84813059D01*
X150181085Y-84638029D01*
X150200322Y-84455000D01*
X150181085Y-84271971D01*
X150177127Y-84259789D01*
X150124215Y-84096942D01*
X150032197Y-83937563D01*
X150032194Y-83937558D01*
X149909047Y-83800790D01*
X149760167Y-83692622D01*
X149760160Y-83692618D01*
X149592035Y-83617764D01*
X149592033Y-83617763D01*
X149450282Y-83587633D01*
X149412019Y-83579500D01*
X149227981Y-83579500D01*
X149196425Y-83586207D01*
X149047966Y-83617763D01*
X149047964Y-83617764D01*
X148879839Y-83692618D01*
X148879832Y-83692622D01*
X148730952Y-83800790D01*
X148607805Y-83937558D01*
X148607802Y-83937563D01*
X148515784Y-84096942D01*
X148458916Y-84271965D01*
X148439678Y-84455000D01*
X148200322Y-84455000D01*
X148181085Y-84271971D01*
X148177127Y-84259789D01*
X148124215Y-84096942D01*
X148032197Y-83937563D01*
X148032194Y-83937558D01*
X147909047Y-83800790D01*
X147760167Y-83692622D01*
X147760160Y-83692618D01*
X147592035Y-83617764D01*
X147592033Y-83617763D01*
X147450282Y-83587633D01*
X147412019Y-83579500D01*
X147227981Y-83579500D01*
X147196425Y-83586207D01*
X147047966Y-83617763D01*
X147047964Y-83617764D01*
X146879839Y-83692618D01*
X146879832Y-83692622D01*
X146730952Y-83800790D01*
X146607805Y-83937558D01*
X146607802Y-83937563D01*
X146515784Y-84096942D01*
X146458916Y-84271965D01*
X146439678Y-84455000D01*
X146195500Y-84455000D01*
X146195500Y-83760252D01*
X146183867Y-83701769D01*
X146177752Y-83692618D01*
X146169027Y-83679560D01*
X146139552Y-83635448D01*
X146117343Y-83620608D01*
X146073232Y-83591133D01*
X146073233Y-83591133D01*
X146043989Y-83585316D01*
X146014748Y-83579500D01*
X144625252Y-83579500D01*
X144596010Y-83585316D01*
X144566767Y-83591133D01*
X144500449Y-83635447D01*
X144500447Y-83635449D01*
X144456133Y-83701767D01*
X144444500Y-83760253D01*
X140750500Y-83760253D01*
X140750500Y-83124500D01*
X140772174Y-83072174D01*
X140824500Y-83050500D01*
X151275500Y-83050500D01*
X151327826Y-83072174D01*
G37*
%TD.AperFunction*%
%TD*%
M02*
