%TF.GenerationSoftware,KiCad,Pcbnew,8.0.4*%
%TF.CreationDate,2024-08-22T18:10:40-07:00*%
%TF.ProjectId,tmtua,746d7475-612e-46b6-9963-61645f706362,0.1*%
%TF.SameCoordinates,Original*%
%TF.FileFunction,Legend,Top*%
%TF.FilePolarity,Positive*%
%FSLAX46Y46*%
G04 Gerber Fmt 4.6, Leading zero omitted, Abs format (unit mm)*
G04 Created by KiCad (PCBNEW 8.0.4) date 2024-08-22 18:10:40*
%MOMM*%
%LPD*%
G01*
G04 APERTURE LIST*
%ADD10C,0.100000*%
%ADD11C,0.200000*%
%ADD12C,0.150000*%
%ADD13C,0.120000*%
%ADD14R,1.350000X1.350000*%
%ADD15O,1.350000X1.350000*%
%ADD16R,1.730000X2.030000*%
%ADD17O,1.730000X2.030000*%
%ADD18R,1.700000X1.700000*%
%ADD19O,1.700000X1.700000*%
G04 APERTURE END LIST*
D10*
X104716837Y-50942419D02*
X105050170Y-51942419D01*
X105050170Y-51942419D02*
X105383503Y-50942419D01*
X105716837Y-51942419D02*
X105716837Y-50942419D01*
X105716837Y-50942419D02*
X106050170Y-51656704D01*
X106050170Y-51656704D02*
X106383503Y-50942419D01*
X106383503Y-50942419D02*
X106383503Y-51942419D01*
X100237027Y-51021752D02*
X100617979Y-51021752D01*
X100379884Y-51688419D02*
X100379884Y-50831276D01*
X100379884Y-50831276D02*
X100427503Y-50736038D01*
X100427503Y-50736038D02*
X100522741Y-50688419D01*
X100522741Y-50688419D02*
X100617979Y-50688419D01*
X101379884Y-51688419D02*
X101379884Y-51164609D01*
X101379884Y-51164609D02*
X101332265Y-51069371D01*
X101332265Y-51069371D02*
X101237027Y-51021752D01*
X101237027Y-51021752D02*
X101046551Y-51021752D01*
X101046551Y-51021752D02*
X100951313Y-51069371D01*
X101379884Y-51640800D02*
X101284646Y-51688419D01*
X101284646Y-51688419D02*
X101046551Y-51688419D01*
X101046551Y-51688419D02*
X100951313Y-51640800D01*
X100951313Y-51640800D02*
X100903694Y-51545561D01*
X100903694Y-51545561D02*
X100903694Y-51450323D01*
X100903694Y-51450323D02*
X100951313Y-51355085D01*
X100951313Y-51355085D02*
X101046551Y-51307466D01*
X101046551Y-51307466D02*
X101284646Y-51307466D01*
X101284646Y-51307466D02*
X101379884Y-51259847D01*
X101856075Y-51021752D02*
X101856075Y-51688419D01*
X101856075Y-51116990D02*
X101903694Y-51069371D01*
X101903694Y-51069371D02*
X101998932Y-51021752D01*
X101998932Y-51021752D02*
X102141789Y-51021752D01*
X102141789Y-51021752D02*
X102237027Y-51069371D01*
X102237027Y-51069371D02*
X102284646Y-51164609D01*
X102284646Y-51164609D02*
X102284646Y-51688419D01*
X102951313Y-50688419D02*
X103046551Y-50688419D01*
X103046551Y-50688419D02*
X103141789Y-50736038D01*
X103141789Y-50736038D02*
X103189408Y-50783657D01*
X103189408Y-50783657D02*
X103237027Y-50878895D01*
X103237027Y-50878895D02*
X103284646Y-51069371D01*
X103284646Y-51069371D02*
X103284646Y-51307466D01*
X103284646Y-51307466D02*
X103237027Y-51497942D01*
X103237027Y-51497942D02*
X103189408Y-51593180D01*
X103189408Y-51593180D02*
X103141789Y-51640800D01*
X103141789Y-51640800D02*
X103046551Y-51688419D01*
X103046551Y-51688419D02*
X102951313Y-51688419D01*
X102951313Y-51688419D02*
X102856075Y-51640800D01*
X102856075Y-51640800D02*
X102808456Y-51593180D01*
X102808456Y-51593180D02*
X102760837Y-51497942D01*
X102760837Y-51497942D02*
X102713218Y-51307466D01*
X102713218Y-51307466D02*
X102713218Y-51069371D01*
X102713218Y-51069371D02*
X102760837Y-50878895D01*
X102760837Y-50878895D02*
X102808456Y-50783657D01*
X102808456Y-50783657D02*
X102856075Y-50736038D01*
X102856075Y-50736038D02*
X102951313Y-50688419D01*
X100237027Y-61181752D02*
X100617979Y-61181752D01*
X100379884Y-61848419D02*
X100379884Y-60991276D01*
X100379884Y-60991276D02*
X100427503Y-60896038D01*
X100427503Y-60896038D02*
X100522741Y-60848419D01*
X100522741Y-60848419D02*
X100617979Y-60848419D01*
X101379884Y-61848419D02*
X101379884Y-61324609D01*
X101379884Y-61324609D02*
X101332265Y-61229371D01*
X101332265Y-61229371D02*
X101237027Y-61181752D01*
X101237027Y-61181752D02*
X101046551Y-61181752D01*
X101046551Y-61181752D02*
X100951313Y-61229371D01*
X101379884Y-61800800D02*
X101284646Y-61848419D01*
X101284646Y-61848419D02*
X101046551Y-61848419D01*
X101046551Y-61848419D02*
X100951313Y-61800800D01*
X100951313Y-61800800D02*
X100903694Y-61705561D01*
X100903694Y-61705561D02*
X100903694Y-61610323D01*
X100903694Y-61610323D02*
X100951313Y-61515085D01*
X100951313Y-61515085D02*
X101046551Y-61467466D01*
X101046551Y-61467466D02*
X101284646Y-61467466D01*
X101284646Y-61467466D02*
X101379884Y-61419847D01*
X101856075Y-61181752D02*
X101856075Y-61848419D01*
X101856075Y-61276990D02*
X101903694Y-61229371D01*
X101903694Y-61229371D02*
X101998932Y-61181752D01*
X101998932Y-61181752D02*
X102141789Y-61181752D01*
X102141789Y-61181752D02*
X102237027Y-61229371D01*
X102237027Y-61229371D02*
X102284646Y-61324609D01*
X102284646Y-61324609D02*
X102284646Y-61848419D01*
X103284646Y-61848419D02*
X102713218Y-61848419D01*
X102998932Y-61848419D02*
X102998932Y-60848419D01*
X102998932Y-60848419D02*
X102903694Y-60991276D01*
X102903694Y-60991276D02*
X102808456Y-61086514D01*
X102808456Y-61086514D02*
X102713218Y-61134133D01*
X107738292Y-61100504D02*
X107262102Y-61100504D01*
X107262102Y-61100504D02*
X107214483Y-61576694D01*
X107214483Y-61576694D02*
X107262102Y-61529075D01*
X107262102Y-61529075D02*
X107357340Y-61481456D01*
X107357340Y-61481456D02*
X107595435Y-61481456D01*
X107595435Y-61481456D02*
X107690673Y-61529075D01*
X107690673Y-61529075D02*
X107738292Y-61576694D01*
X107738292Y-61576694D02*
X107785911Y-61671932D01*
X107785911Y-61671932D02*
X107785911Y-61910027D01*
X107785911Y-61910027D02*
X107738292Y-62005265D01*
X107738292Y-62005265D02*
X107690673Y-62052885D01*
X107690673Y-62052885D02*
X107595435Y-62100504D01*
X107595435Y-62100504D02*
X107357340Y-62100504D01*
X107357340Y-62100504D02*
X107262102Y-62052885D01*
X107262102Y-62052885D02*
X107214483Y-62005265D01*
X108119245Y-61433837D02*
X108357340Y-62100504D01*
X108357340Y-62100504D02*
X108595435Y-61433837D01*
X104716837Y-61102419D02*
X105050170Y-62102419D01*
X105050170Y-62102419D02*
X105383503Y-61102419D01*
X105716837Y-62102419D02*
X105716837Y-61102419D01*
X105716837Y-61102419D02*
X106050170Y-61816704D01*
X106050170Y-61816704D02*
X106383503Y-61102419D01*
X106383503Y-61102419D02*
X106383503Y-62102419D01*
D11*
X100564720Y-49058314D02*
X101064720Y-49058314D01*
X101279006Y-49844028D02*
X100564720Y-49844028D01*
X100564720Y-49844028D02*
X100564720Y-48344028D01*
X100564720Y-48344028D02*
X101279006Y-48344028D01*
X101921863Y-49844028D02*
X101921863Y-48344028D01*
X101921863Y-48344028D02*
X102779006Y-49844028D01*
X102779006Y-49844028D02*
X102779006Y-48344028D01*
D10*
X107738292Y-50940504D02*
X107262102Y-50940504D01*
X107262102Y-50940504D02*
X107214483Y-51416694D01*
X107214483Y-51416694D02*
X107262102Y-51369075D01*
X107262102Y-51369075D02*
X107357340Y-51321456D01*
X107357340Y-51321456D02*
X107595435Y-51321456D01*
X107595435Y-51321456D02*
X107690673Y-51369075D01*
X107690673Y-51369075D02*
X107738292Y-51416694D01*
X107738292Y-51416694D02*
X107785911Y-51511932D01*
X107785911Y-51511932D02*
X107785911Y-51750027D01*
X107785911Y-51750027D02*
X107738292Y-51845265D01*
X107738292Y-51845265D02*
X107690673Y-51892885D01*
X107690673Y-51892885D02*
X107595435Y-51940504D01*
X107595435Y-51940504D02*
X107357340Y-51940504D01*
X107357340Y-51940504D02*
X107262102Y-51892885D01*
X107262102Y-51892885D02*
X107214483Y-51845265D01*
X108119245Y-51273837D02*
X108357340Y-51940504D01*
X108357340Y-51940504D02*
X108595435Y-51273837D01*
D12*
X109944819Y-60277333D02*
X110659104Y-60277333D01*
X110659104Y-60277333D02*
X110801961Y-60324952D01*
X110801961Y-60324952D02*
X110897200Y-60420190D01*
X110897200Y-60420190D02*
X110944819Y-60563047D01*
X110944819Y-60563047D02*
X110944819Y-60658285D01*
X110278152Y-59372571D02*
X110944819Y-59372571D01*
X109897200Y-59610666D02*
X110611485Y-59848761D01*
X110611485Y-59848761D02*
X110611485Y-59229714D01*
X100909523Y-53445580D02*
X100861904Y-53493200D01*
X100861904Y-53493200D02*
X100719047Y-53540819D01*
X100719047Y-53540819D02*
X100623809Y-53540819D01*
X100623809Y-53540819D02*
X100480952Y-53493200D01*
X100480952Y-53493200D02*
X100385714Y-53397961D01*
X100385714Y-53397961D02*
X100338095Y-53302723D01*
X100338095Y-53302723D02*
X100290476Y-53112247D01*
X100290476Y-53112247D02*
X100290476Y-52969390D01*
X100290476Y-52969390D02*
X100338095Y-52778914D01*
X100338095Y-52778914D02*
X100385714Y-52683676D01*
X100385714Y-52683676D02*
X100480952Y-52588438D01*
X100480952Y-52588438D02*
X100623809Y-52540819D01*
X100623809Y-52540819D02*
X100719047Y-52540819D01*
X100719047Y-52540819D02*
X100861904Y-52588438D01*
X100861904Y-52588438D02*
X100909523Y-52636057D01*
X101338095Y-53540819D02*
X101338095Y-52540819D01*
X101338095Y-52540819D02*
X101909523Y-53540819D01*
X101909523Y-53540819D02*
X101909523Y-52540819D01*
X102909523Y-53540819D02*
X102338095Y-53540819D01*
X102623809Y-53540819D02*
X102623809Y-52540819D01*
X102623809Y-52540819D02*
X102528571Y-52683676D01*
X102528571Y-52683676D02*
X102433333Y-52778914D01*
X102433333Y-52778914D02*
X102338095Y-52826533D01*
X101163523Y-63605580D02*
X101115904Y-63653200D01*
X101115904Y-63653200D02*
X100973047Y-63700819D01*
X100973047Y-63700819D02*
X100877809Y-63700819D01*
X100877809Y-63700819D02*
X100734952Y-63653200D01*
X100734952Y-63653200D02*
X100639714Y-63557961D01*
X100639714Y-63557961D02*
X100592095Y-63462723D01*
X100592095Y-63462723D02*
X100544476Y-63272247D01*
X100544476Y-63272247D02*
X100544476Y-63129390D01*
X100544476Y-63129390D02*
X100592095Y-62938914D01*
X100592095Y-62938914D02*
X100639714Y-62843676D01*
X100639714Y-62843676D02*
X100734952Y-62748438D01*
X100734952Y-62748438D02*
X100877809Y-62700819D01*
X100877809Y-62700819D02*
X100973047Y-62700819D01*
X100973047Y-62700819D02*
X101115904Y-62748438D01*
X101115904Y-62748438D02*
X101163523Y-62796057D01*
X101592095Y-63700819D02*
X101592095Y-62700819D01*
X101592095Y-62700819D02*
X102163523Y-63700819D01*
X102163523Y-63700819D02*
X102163523Y-62700819D01*
X102592095Y-62796057D02*
X102639714Y-62748438D01*
X102639714Y-62748438D02*
X102734952Y-62700819D01*
X102734952Y-62700819D02*
X102973047Y-62700819D01*
X102973047Y-62700819D02*
X103068285Y-62748438D01*
X103068285Y-62748438D02*
X103115904Y-62796057D01*
X103115904Y-62796057D02*
X103163523Y-62891295D01*
X103163523Y-62891295D02*
X103163523Y-62986533D01*
X103163523Y-62986533D02*
X103115904Y-63129390D01*
X103115904Y-63129390D02*
X102544476Y-63700819D01*
X102544476Y-63700819D02*
X103163523Y-63700819D01*
X109944819Y-49990333D02*
X110659104Y-49990333D01*
X110659104Y-49990333D02*
X110801961Y-50037952D01*
X110801961Y-50037952D02*
X110897200Y-50133190D01*
X110897200Y-50133190D02*
X110944819Y-50276047D01*
X110944819Y-50276047D02*
X110944819Y-50371285D01*
X109944819Y-49609380D02*
X109944819Y-48990333D01*
X109944819Y-48990333D02*
X110325771Y-49323666D01*
X110325771Y-49323666D02*
X110325771Y-49180809D01*
X110325771Y-49180809D02*
X110373390Y-49085571D01*
X110373390Y-49085571D02*
X110421009Y-49037952D01*
X110421009Y-49037952D02*
X110516247Y-48990333D01*
X110516247Y-48990333D02*
X110754342Y-48990333D01*
X110754342Y-48990333D02*
X110849580Y-49037952D01*
X110849580Y-49037952D02*
X110897200Y-49085571D01*
X110897200Y-49085571D02*
X110944819Y-49180809D01*
X110944819Y-49180809D02*
X110944819Y-49466523D01*
X110944819Y-49466523D02*
X110897200Y-49561761D01*
X110897200Y-49561761D02*
X110849580Y-49609380D01*
D13*
%TO.C,J4*%
X103620000Y-60877000D02*
X103620000Y-59817000D01*
X104680000Y-60877000D02*
X103620000Y-60877000D01*
X105680000Y-58757000D02*
X109740000Y-58757000D01*
X105680000Y-60877000D02*
X105680000Y-58757000D01*
X105680000Y-60877000D02*
X109740000Y-60877000D01*
X109740000Y-60877000D02*
X109740000Y-58757000D01*
%TO.C,CN1*%
X100260000Y-52018000D02*
X110560000Y-52018000D01*
X100260000Y-57968000D02*
X100260000Y-52018000D01*
X103460000Y-57968000D02*
X100260000Y-57968000D01*
X104130000Y-53128000D02*
X104130000Y-52118000D01*
X109210000Y-52118000D02*
X109210000Y-53128000D01*
X109210000Y-53128000D02*
X104130000Y-53128000D01*
X110560000Y-52018000D02*
X110560000Y-58018000D01*
X110560000Y-58018000D02*
X104810000Y-58018000D01*
%TO.C,CN2*%
X100270000Y-62132000D02*
X110570000Y-62132000D01*
X100270000Y-68082000D02*
X100270000Y-62132000D01*
X103470000Y-68082000D02*
X100270000Y-68082000D01*
X104140000Y-63242000D02*
X104140000Y-62232000D01*
X109220000Y-62232000D02*
X109220000Y-63242000D01*
X109220000Y-63242000D02*
X104140000Y-63242000D01*
X110570000Y-62132000D02*
X110570000Y-68132000D01*
X110570000Y-68132000D02*
X104820000Y-68132000D01*
%TO.C,J3*%
X103620000Y-50717000D02*
X103620000Y-49657000D01*
X104680000Y-50717000D02*
X103620000Y-50717000D01*
X105680000Y-48597000D02*
X109740000Y-48597000D01*
X105680000Y-50717000D02*
X105680000Y-48597000D01*
X105680000Y-50717000D02*
X109740000Y-50717000D01*
X109740000Y-50717000D02*
X109740000Y-48597000D01*
%TD*%
%LPC*%
D14*
%TO.C,J4*%
X104680000Y-59817000D03*
D15*
X106680000Y-59817000D03*
X108680000Y-59817000D03*
%TD*%
D16*
%TO.C,CN1*%
X109210000Y-55418000D03*
D17*
X106670000Y-55418000D03*
X104130000Y-55418000D03*
X101590000Y-55418000D03*
%TD*%
D16*
%TO.C,CN2*%
X109220000Y-65532000D03*
D17*
X106680000Y-65532000D03*
X104140000Y-65532000D03*
X101600000Y-65532000D03*
%TD*%
D14*
%TO.C,J3*%
X104680000Y-49657000D03*
D15*
X106680000Y-49657000D03*
X108680000Y-49657000D03*
%TD*%
D18*
%TO.C,J2*%
X111760000Y-49022000D03*
D19*
X111760000Y-51562000D03*
X111760000Y-54102000D03*
X111760000Y-56642000D03*
X111760000Y-59182000D03*
X111760000Y-61722000D03*
X111760000Y-64262000D03*
X111760000Y-66802000D03*
%TD*%
D18*
%TO.C,J1*%
X99060000Y-49022000D03*
D19*
X99060000Y-51562000D03*
X99060000Y-54102000D03*
X99060000Y-56642000D03*
X99060000Y-59182000D03*
X99060000Y-61722000D03*
X99060000Y-64262000D03*
X99060000Y-66802000D03*
%TD*%
%LPD*%
M02*
