%TF.GenerationSoftware,KiCad,Pcbnew,8.0.4*%
%TF.CreationDate,2024-08-22T18:10:40-07:00*%
%TF.ProjectId,tmtua,746d7475-612e-46b6-9963-61645f706362,0.1*%
%TF.SameCoordinates,Original*%
%TF.FileFunction,Copper,L1,Top*%
%TF.FilePolarity,Positive*%
%FSLAX46Y46*%
G04 Gerber Fmt 4.6, Leading zero omitted, Abs format (unit mm)*
G04 Created by KiCad (PCBNEW 8.0.4) date 2024-08-22 18:10:40*
%MOMM*%
%LPD*%
G01*
G04 APERTURE LIST*
%TA.AperFunction,ComponentPad*%
%ADD10R,1.350000X1.350000*%
%TD*%
%TA.AperFunction,ComponentPad*%
%ADD11O,1.350000X1.350000*%
%TD*%
%TA.AperFunction,ComponentPad*%
%ADD12R,1.730000X2.030000*%
%TD*%
%TA.AperFunction,ComponentPad*%
%ADD13O,1.730000X2.030000*%
%TD*%
%TA.AperFunction,ComponentPad*%
%ADD14R,1.700000X1.700000*%
%TD*%
%TA.AperFunction,ComponentPad*%
%ADD15O,1.700000X1.700000*%
%TD*%
%TA.AperFunction,Conductor*%
%ADD16C,0.200000*%
%TD*%
%TA.AperFunction,Conductor*%
%ADD17C,0.300000*%
%TD*%
G04 APERTURE END LIST*
D10*
%TO.P,J4,1,Pin_1*%
%TO.N,VM*%
X104680000Y-59817000D03*
D11*
%TO.P,J4,2,Pin_2*%
%TO.N,/vfan1*%
X106680000Y-59817000D03*
%TO.P,J4,3,Pin_3*%
%TO.N,+5V*%
X108680000Y-59817000D03*
%TD*%
D12*
%TO.P,CN1,1,Pin_1*%
%TO.N,GND*%
X109210000Y-55418000D03*
D13*
%TO.P,CN1,2,Pin_2*%
%TO.N,/vfan0*%
X106670000Y-55418000D03*
%TO.P,CN1,3,Pin_3*%
%TO.N,/tach0*%
X104130000Y-55418000D03*
%TO.P,CN1,4,Pin_4*%
%TO.N,/pwm0*%
X101590000Y-55418000D03*
%TD*%
D12*
%TO.P,CN2,1,Pin_1*%
%TO.N,GND*%
X109220000Y-65532000D03*
D13*
%TO.P,CN2,2,Pin_2*%
%TO.N,/vfan1*%
X106680000Y-65532000D03*
%TO.P,CN2,3,Pin_3*%
%TO.N,/tach1*%
X104140000Y-65532000D03*
%TO.P,CN2,4,Pin_4*%
%TO.N,/pwm1*%
X101600000Y-65532000D03*
%TD*%
D10*
%TO.P,J3,1,Pin_1*%
%TO.N,VM*%
X104680000Y-49657000D03*
D11*
%TO.P,J3,2,Pin_2*%
%TO.N,/vfan0*%
X106680000Y-49657000D03*
%TO.P,J3,3,Pin_3*%
%TO.N,+5V*%
X108680000Y-49657000D03*
%TD*%
D14*
%TO.P,J2,1,Pin_1*%
%TO.N,VM*%
X111760000Y-49022000D03*
D15*
%TO.P,J2,2,Pin_2*%
%TO.N,GND*%
X111760000Y-51562000D03*
%TO.P,J2,3,Pin_3*%
%TO.N,unconnected-(J2-Pin_3-Pad3)*%
X111760000Y-54102000D03*
%TO.P,J2,4,Pin_4*%
%TO.N,unconnected-(J2-Pin_4-Pad4)*%
X111760000Y-56642000D03*
%TO.P,J2,5,Pin_5*%
%TO.N,unconnected-(J2-Pin_5-Pad5)*%
X111760000Y-59182000D03*
%TO.P,J2,6,Pin_6*%
%TO.N,unconnected-(J2-Pin_6-Pad6)*%
X111760000Y-61722000D03*
%TO.P,J2,7,Pin_7*%
%TO.N,+5V*%
X111760000Y-64262000D03*
%TO.P,J2,8,Pin_8*%
%TO.N,GND*%
X111760000Y-66802000D03*
%TD*%
D14*
%TO.P,J1,1,Pin_1*%
%TO.N,/tach0*%
X99060000Y-49022000D03*
D15*
%TO.P,J1,2,Pin_2*%
%TO.N,unconnected-(J1-Pin_2-Pad2)*%
X99060000Y-51562000D03*
%TO.P,J1,3,Pin_3*%
%TO.N,unconnected-(J1-Pin_3-Pad3)*%
X99060000Y-54102000D03*
%TO.P,J1,4,Pin_4*%
%TO.N,/tach1*%
X99060000Y-56642000D03*
%TO.P,J1,5,Pin_5*%
%TO.N,unconnected-(J1-Pin_5-Pad5)*%
X99060000Y-59182000D03*
%TO.P,J1,6,Pin_6*%
%TO.N,unconnected-(J1-Pin_6-Pad6)*%
X99060000Y-61722000D03*
%TO.P,J1,7,Pin_7*%
%TO.N,/pwm0*%
X99060000Y-64262000D03*
%TO.P,J1,8,Pin_8*%
%TO.N,/pwm1*%
X99060000Y-66802000D03*
%TD*%
D16*
%TO.N,/tach0*%
X104130000Y-55418000D02*
X104130000Y-52568000D01*
X104130000Y-52568000D02*
X100584000Y-49022000D01*
X100584000Y-49022000D02*
X99060000Y-49022000D01*
%TO.N,/pwm0*%
X101590000Y-61732000D02*
X99060000Y-64262000D01*
X101590000Y-55418000D02*
X101590000Y-61732000D01*
%TO.N,/pwm1*%
X101600000Y-65532000D02*
X100330000Y-65532000D01*
X100330000Y-65532000D02*
X99060000Y-66802000D01*
%TO.N,/tach1*%
X99060000Y-56134000D02*
X99060000Y-56642000D01*
X102802396Y-64194396D02*
X102802396Y-54796396D01*
X101091000Y-54103000D02*
X99060000Y-56134000D01*
X104140000Y-65532000D02*
X102802396Y-64194396D01*
X102802396Y-54796396D02*
X102109000Y-54103000D01*
X102109000Y-54103000D02*
X101091000Y-54103000D01*
D17*
%TO.N,+5V*%
X107940462Y-59077462D02*
X107940462Y-50396538D01*
X111760000Y-64262000D02*
X108680000Y-61182000D01*
X108680000Y-59817000D02*
X107940462Y-59077462D01*
X107940462Y-50396538D02*
X108680000Y-49657000D01*
X108680000Y-61182000D02*
X108680000Y-59817000D01*
%TO.N,VM*%
X105410000Y-56896000D02*
X104680000Y-57626000D01*
X104680000Y-53626000D02*
X105410000Y-54356000D01*
X111760000Y-49022000D02*
X111252000Y-48514000D01*
X105823000Y-48514000D02*
X104680000Y-49657000D01*
X104680000Y-49657000D02*
X104680000Y-53626000D01*
X111252000Y-48514000D02*
X105823000Y-48514000D01*
X105410000Y-54356000D02*
X105410000Y-56896000D01*
X104680000Y-57626000D02*
X104680000Y-59817000D01*
%TO.N,/vfan0*%
X106680000Y-55408000D02*
X106670000Y-55418000D01*
X106680000Y-49657000D02*
X106680000Y-55408000D01*
%TO.N,/vfan1*%
X106680000Y-59817000D02*
X106680000Y-65532000D01*
%TD*%
M02*
