M48
; DRILL file {KiCad 8.0.4} date 2024-08-22T16:07:43-0700
; FORMAT={-:-/ absolute / inch / decimal}
; #@! TF.CreationDate,2024-08-22T16:07:43-07:00
; #@! TF.GenerationSoftware,Kicad,Pcbnew,8.0.4
; #@! TF.FileFunction,Plated,1,2,PTH
FMAT,2
INCH
; #@! TA.AperFunction,Plated,PTH,ComponentDrill
T1C0.0315
; #@! TA.AperFunction,Plated,PTH,ComponentDrill
T2C0.0394
; #@! TA.AperFunction,Plated,PTH,ComponentDrill
T3C0.0402
%
G90
G05
T1
X5.7213Y-3.325
X5.7213Y-3.725
X5.8Y-3.325
X5.8Y-3.725
X5.8787Y-3.325
X5.8787Y-3.725
T2
X5.5Y-3.3
X5.5Y-3.4
X5.5Y-3.5
X5.5Y-3.6
X5.5Y-3.7
X5.5Y-3.8
X5.5Y-3.9
X5.5Y-4.0
X6.0Y-3.3
X6.0Y-3.4
X6.0Y-3.5
X6.0Y-3.6
X6.0Y-3.7
X6.0Y-3.8
X6.0Y-3.9
X6.0Y-4.0
T3
X5.5996Y-3.5518
X5.6Y-3.95
X5.6996Y-3.5518
X5.7Y-3.95
X5.7996Y-3.5518
X5.8Y-3.95
X5.8996Y-3.5518
X5.9Y-3.95
M30
