%TF.GenerationSoftware,KiCad,Pcbnew,8.0.4*%
%TF.CreationDate,2024-08-22T18:10:40-07:00*%
%TF.ProjectId,tmtua,746d7475-612e-46b6-9963-61645f706362,0.1*%
%TF.SameCoordinates,Original*%
%TF.FileFunction,Copper,L2,Bot*%
%TF.FilePolarity,Positive*%
%FSLAX46Y46*%
G04 Gerber Fmt 4.6, Leading zero omitted, Abs format (unit mm)*
G04 Created by KiCad (PCBNEW 8.0.4) date 2024-08-22 18:10:40*
%MOMM*%
%LPD*%
G01*
G04 APERTURE LIST*
%TA.AperFunction,ComponentPad*%
%ADD10R,1.350000X1.350000*%
%TD*%
%TA.AperFunction,ComponentPad*%
%ADD11O,1.350000X1.350000*%
%TD*%
%TA.AperFunction,ComponentPad*%
%ADD12R,1.730000X2.030000*%
%TD*%
%TA.AperFunction,ComponentPad*%
%ADD13O,1.730000X2.030000*%
%TD*%
%TA.AperFunction,ComponentPad*%
%ADD14R,1.700000X1.700000*%
%TD*%
%TA.AperFunction,ComponentPad*%
%ADD15O,1.700000X1.700000*%
%TD*%
G04 APERTURE END LIST*
D10*
%TO.P,J4,1,Pin_1*%
%TO.N,VM*%
X104680000Y-59817000D03*
D11*
%TO.P,J4,2,Pin_2*%
%TO.N,/vfan1*%
X106680000Y-59817000D03*
%TO.P,J4,3,Pin_3*%
%TO.N,+5V*%
X108680000Y-59817000D03*
%TD*%
D12*
%TO.P,CN1,1,Pin_1*%
%TO.N,GND*%
X109210000Y-55418000D03*
D13*
%TO.P,CN1,2,Pin_2*%
%TO.N,/vfan0*%
X106670000Y-55418000D03*
%TO.P,CN1,3,Pin_3*%
%TO.N,/tach0*%
X104130000Y-55418000D03*
%TO.P,CN1,4,Pin_4*%
%TO.N,/pwm0*%
X101590000Y-55418000D03*
%TD*%
D12*
%TO.P,CN2,1,Pin_1*%
%TO.N,GND*%
X109220000Y-65532000D03*
D13*
%TO.P,CN2,2,Pin_2*%
%TO.N,/vfan1*%
X106680000Y-65532000D03*
%TO.P,CN2,3,Pin_3*%
%TO.N,/tach1*%
X104140000Y-65532000D03*
%TO.P,CN2,4,Pin_4*%
%TO.N,/pwm1*%
X101600000Y-65532000D03*
%TD*%
D10*
%TO.P,J3,1,Pin_1*%
%TO.N,VM*%
X104680000Y-49657000D03*
D11*
%TO.P,J3,2,Pin_2*%
%TO.N,/vfan0*%
X106680000Y-49657000D03*
%TO.P,J3,3,Pin_3*%
%TO.N,+5V*%
X108680000Y-49657000D03*
%TD*%
D14*
%TO.P,J2,1,Pin_1*%
%TO.N,VM*%
X111760000Y-49022000D03*
D15*
%TO.P,J2,2,Pin_2*%
%TO.N,GND*%
X111760000Y-51562000D03*
%TO.P,J2,3,Pin_3*%
%TO.N,unconnected-(J2-Pin_3-Pad3)*%
X111760000Y-54102000D03*
%TO.P,J2,4,Pin_4*%
%TO.N,unconnected-(J2-Pin_4-Pad4)*%
X111760000Y-56642000D03*
%TO.P,J2,5,Pin_5*%
%TO.N,unconnected-(J2-Pin_5-Pad5)*%
X111760000Y-59182000D03*
%TO.P,J2,6,Pin_6*%
%TO.N,unconnected-(J2-Pin_6-Pad6)*%
X111760000Y-61722000D03*
%TO.P,J2,7,Pin_7*%
%TO.N,+5V*%
X111760000Y-64262000D03*
%TO.P,J2,8,Pin_8*%
%TO.N,GND*%
X111760000Y-66802000D03*
%TD*%
D14*
%TO.P,J1,1,Pin_1*%
%TO.N,/tach0*%
X99060000Y-49022000D03*
D15*
%TO.P,J1,2,Pin_2*%
%TO.N,unconnected-(J1-Pin_2-Pad2)*%
X99060000Y-51562000D03*
%TO.P,J1,3,Pin_3*%
%TO.N,unconnected-(J1-Pin_3-Pad3)*%
X99060000Y-54102000D03*
%TO.P,J1,4,Pin_4*%
%TO.N,/tach1*%
X99060000Y-56642000D03*
%TO.P,J1,5,Pin_5*%
%TO.N,unconnected-(J1-Pin_5-Pad5)*%
X99060000Y-59182000D03*
%TO.P,J1,6,Pin_6*%
%TO.N,unconnected-(J1-Pin_6-Pad6)*%
X99060000Y-61722000D03*
%TO.P,J1,7,Pin_7*%
%TO.N,/pwm0*%
X99060000Y-64262000D03*
%TO.P,J1,8,Pin_8*%
%TO.N,/pwm1*%
X99060000Y-66802000D03*
%TD*%
%TA.AperFunction,Conductor*%
%TO.N,GND*%
G36*
X110687826Y-48274174D02*
G01*
X110709500Y-48326500D01*
X110709500Y-49891746D01*
X110721133Y-49950232D01*
X110750608Y-49994343D01*
X110765448Y-50016552D01*
X110809560Y-50046027D01*
X110831767Y-50060866D01*
X110831768Y-50060866D01*
X110831769Y-50060867D01*
X110890252Y-50072500D01*
X112455500Y-50072500D01*
X112507826Y-50094174D01*
X112529500Y-50146500D01*
X112529500Y-50553002D01*
X112507826Y-50605328D01*
X112455500Y-50627002D01*
X112416544Y-50615918D01*
X112274799Y-50528155D01*
X112274789Y-50528150D01*
X112076064Y-50451163D01*
X111866566Y-50412000D01*
X111653433Y-50412000D01*
X111443935Y-50451163D01*
X111245210Y-50528150D01*
X111245200Y-50528155D01*
X111142991Y-50591438D01*
X111630590Y-51079037D01*
X111567007Y-51096075D01*
X111452993Y-51161901D01*
X111359901Y-51254993D01*
X111294075Y-51369007D01*
X111277037Y-51432590D01*
X110786835Y-50942388D01*
X110778063Y-50954005D01*
X110778059Y-50954011D01*
X110683064Y-51144787D01*
X110683061Y-51144797D01*
X110624736Y-51349788D01*
X110605073Y-51561996D01*
X110605073Y-51561999D01*
X110624736Y-51774211D01*
X110683061Y-51979202D01*
X110683064Y-51979212D01*
X110778059Y-52169988D01*
X110778059Y-52169989D01*
X110786835Y-52181609D01*
X111277037Y-51691407D01*
X111294075Y-51754993D01*
X111359901Y-51869007D01*
X111452993Y-51962099D01*
X111567007Y-52027925D01*
X111630588Y-52044962D01*
X111142992Y-52532559D01*
X111245200Y-52595844D01*
X111245210Y-52595849D01*
X111443935Y-52672836D01*
X111653433Y-52711999D01*
X111653437Y-52712000D01*
X111866563Y-52712000D01*
X111866566Y-52711999D01*
X112076064Y-52672836D01*
X112274789Y-52595849D01*
X112274799Y-52595844D01*
X112416544Y-52508081D01*
X112472442Y-52498963D01*
X112518416Y-52532041D01*
X112529500Y-52570997D01*
X112529500Y-53218079D01*
X112507826Y-53270405D01*
X112455500Y-53292079D01*
X112408556Y-53275282D01*
X112346453Y-53224317D01*
X112346451Y-53224316D01*
X112346450Y-53224315D01*
X112163954Y-53126768D01*
X112052158Y-53092855D01*
X111965935Y-53066700D01*
X111760000Y-53046417D01*
X111554064Y-53066700D01*
X111356043Y-53126769D01*
X111173549Y-53224315D01*
X111013590Y-53355589D01*
X111013589Y-53355590D01*
X110882315Y-53515549D01*
X110784769Y-53698043D01*
X110724700Y-53896064D01*
X110704417Y-54102000D01*
X110724700Y-54307935D01*
X110732343Y-54333131D01*
X110764874Y-54440373D01*
X110784769Y-54505956D01*
X110882315Y-54688450D01*
X110990499Y-54820274D01*
X111013590Y-54848410D01*
X111173550Y-54979685D01*
X111356046Y-55077232D01*
X111554066Y-55137300D01*
X111760000Y-55157583D01*
X111965934Y-55137300D01*
X112163954Y-55077232D01*
X112346450Y-54979685D01*
X112373844Y-54957204D01*
X112408555Y-54928717D01*
X112462753Y-54912275D01*
X112512702Y-54938974D01*
X112529500Y-54985919D01*
X112529500Y-55758079D01*
X112507826Y-55810405D01*
X112455500Y-55832079D01*
X112408556Y-55815282D01*
X112346453Y-55764317D01*
X112346451Y-55764316D01*
X112346450Y-55764315D01*
X112163954Y-55666768D01*
X112052158Y-55632855D01*
X111965935Y-55606700D01*
X111760000Y-55586417D01*
X111554064Y-55606700D01*
X111356043Y-55666769D01*
X111173549Y-55764315D01*
X111013590Y-55895589D01*
X111013589Y-55895590D01*
X110882315Y-56055549D01*
X110784769Y-56238043D01*
X110724700Y-56436064D01*
X110704417Y-56642000D01*
X110724700Y-56847935D01*
X110784769Y-57045956D01*
X110882315Y-57228450D01*
X110990499Y-57360274D01*
X111013590Y-57388410D01*
X111173550Y-57519685D01*
X111356046Y-57617232D01*
X111554066Y-57677300D01*
X111760000Y-57697583D01*
X111965934Y-57677300D01*
X112163954Y-57617232D01*
X112346450Y-57519685D01*
X112408555Y-57468716D01*
X112462753Y-57452275D01*
X112512702Y-57478974D01*
X112529500Y-57525919D01*
X112529500Y-58298079D01*
X112507826Y-58350405D01*
X112455500Y-58372079D01*
X112408556Y-58355282D01*
X112346453Y-58304317D01*
X112346451Y-58304316D01*
X112346450Y-58304315D01*
X112163954Y-58206768D01*
X112052158Y-58172855D01*
X111965935Y-58146700D01*
X111760000Y-58126417D01*
X111554064Y-58146700D01*
X111356043Y-58206769D01*
X111173549Y-58304315D01*
X111013590Y-58435589D01*
X111013589Y-58435590D01*
X110882315Y-58595549D01*
X110784769Y-58778043D01*
X110724700Y-58976064D01*
X110704417Y-59182000D01*
X110724700Y-59387935D01*
X110784769Y-59585956D01*
X110882315Y-59768450D01*
X110990499Y-59900274D01*
X111013590Y-59928410D01*
X111173550Y-60059685D01*
X111356046Y-60157232D01*
X111554066Y-60217300D01*
X111760000Y-60237583D01*
X111965934Y-60217300D01*
X112163954Y-60157232D01*
X112346450Y-60059685D01*
X112408555Y-60008716D01*
X112462753Y-59992275D01*
X112512702Y-60018974D01*
X112529500Y-60065919D01*
X112529500Y-60838079D01*
X112507826Y-60890405D01*
X112455500Y-60912079D01*
X112408556Y-60895282D01*
X112346453Y-60844317D01*
X112346451Y-60844316D01*
X112346450Y-60844315D01*
X112163954Y-60746768D01*
X112052158Y-60712855D01*
X111965935Y-60686700D01*
X111760000Y-60666417D01*
X111554064Y-60686700D01*
X111356043Y-60746769D01*
X111173549Y-60844315D01*
X111013590Y-60975589D01*
X111013589Y-60975590D01*
X110882315Y-61135549D01*
X110784769Y-61318043D01*
X110724700Y-61516064D01*
X110704417Y-61722000D01*
X110724700Y-61927935D01*
X110784769Y-62125956D01*
X110882315Y-62308450D01*
X110990499Y-62440274D01*
X111013590Y-62468410D01*
X111173550Y-62599685D01*
X111356046Y-62697232D01*
X111554066Y-62757300D01*
X111760000Y-62777583D01*
X111965934Y-62757300D01*
X112163954Y-62697232D01*
X112346450Y-62599685D01*
X112408555Y-62548716D01*
X112462753Y-62532275D01*
X112512702Y-62558974D01*
X112529500Y-62605919D01*
X112529500Y-63378079D01*
X112507826Y-63430405D01*
X112455500Y-63452079D01*
X112408556Y-63435282D01*
X112346453Y-63384317D01*
X112346451Y-63384316D01*
X112346450Y-63384315D01*
X112163954Y-63286768D01*
X112052158Y-63252855D01*
X111965935Y-63226700D01*
X111760000Y-63206417D01*
X111554064Y-63226700D01*
X111356043Y-63286769D01*
X111173549Y-63384315D01*
X111013590Y-63515589D01*
X111013589Y-63515590D01*
X110882315Y-63675549D01*
X110784769Y-63858043D01*
X110724700Y-64056064D01*
X110704417Y-64262000D01*
X110724700Y-64467935D01*
X110784769Y-64665956D01*
X110882315Y-64848450D01*
X110990499Y-64980274D01*
X111013590Y-65008410D01*
X111173550Y-65139685D01*
X111356046Y-65237232D01*
X111554066Y-65297300D01*
X111760000Y-65317583D01*
X111965934Y-65297300D01*
X112163954Y-65237232D01*
X112346450Y-65139685D01*
X112408555Y-65088716D01*
X112462753Y-65072275D01*
X112512702Y-65098974D01*
X112529500Y-65145919D01*
X112529500Y-65793002D01*
X112507826Y-65845328D01*
X112455500Y-65867002D01*
X112416544Y-65855918D01*
X112274799Y-65768155D01*
X112274789Y-65768150D01*
X112076064Y-65691163D01*
X111866566Y-65652000D01*
X111653433Y-65652000D01*
X111443935Y-65691163D01*
X111245210Y-65768150D01*
X111245200Y-65768155D01*
X111142991Y-65831438D01*
X111630590Y-66319037D01*
X111567007Y-66336075D01*
X111452993Y-66401901D01*
X111359901Y-66494993D01*
X111294075Y-66609007D01*
X111277037Y-66672590D01*
X110786835Y-66182388D01*
X110778063Y-66194005D01*
X110778059Y-66194011D01*
X110683064Y-66384787D01*
X110683061Y-66384797D01*
X110624736Y-66589788D01*
X110605073Y-66801996D01*
X110605073Y-66802000D01*
X110624736Y-67014211D01*
X110683061Y-67219202D01*
X110683064Y-67219212D01*
X110778059Y-67409988D01*
X110778063Y-67409994D01*
X110810468Y-67452905D01*
X110824705Y-67507723D01*
X110796010Y-67556553D01*
X110751415Y-67571500D01*
X99943920Y-67571500D01*
X99891594Y-67549826D01*
X99869920Y-67497500D01*
X99886717Y-67450555D01*
X99920009Y-67409988D01*
X99937685Y-67388450D01*
X100035232Y-67205954D01*
X100095300Y-67007934D01*
X100115583Y-66802000D01*
X100095300Y-66596066D01*
X100035232Y-66398046D01*
X99937685Y-66215550D01*
X99806410Y-66055590D01*
X99789850Y-66042000D01*
X99646450Y-65924315D01*
X99463956Y-65826769D01*
X99463955Y-65826768D01*
X99463954Y-65826768D01*
X99332667Y-65786943D01*
X99265935Y-65766700D01*
X99060000Y-65746417D01*
X98854064Y-65766700D01*
X98656043Y-65826769D01*
X98473546Y-65924317D01*
X98411444Y-65975282D01*
X98357246Y-65991723D01*
X98307297Y-65965023D01*
X98290500Y-65918079D01*
X98290500Y-65145919D01*
X98312174Y-65093593D01*
X98364500Y-65071919D01*
X98411445Y-65088717D01*
X98473545Y-65139682D01*
X98473548Y-65139684D01*
X98473550Y-65139685D01*
X98656046Y-65237232D01*
X98854066Y-65297300D01*
X99060000Y-65317583D01*
X99265934Y-65297300D01*
X99332667Y-65277057D01*
X100534500Y-65277057D01*
X100534500Y-65786943D01*
X100542422Y-65826768D01*
X100575445Y-65992789D01*
X100575447Y-65992795D01*
X100655767Y-66186703D01*
X100772372Y-66361216D01*
X100920784Y-66509628D01*
X101095297Y-66626233D01*
X101289205Y-66706553D01*
X101495057Y-66747500D01*
X101495059Y-66747500D01*
X101704941Y-66747500D01*
X101704943Y-66747500D01*
X101910795Y-66706553D01*
X102104703Y-66626233D01*
X102279216Y-66509628D01*
X102427628Y-66361216D01*
X102544233Y-66186703D01*
X102624553Y-65992795D01*
X102665500Y-65786943D01*
X102665500Y-65277057D01*
X103074500Y-65277057D01*
X103074500Y-65786943D01*
X103082422Y-65826768D01*
X103115445Y-65992789D01*
X103115447Y-65992795D01*
X103195767Y-66186703D01*
X103312372Y-66361216D01*
X103460784Y-66509628D01*
X103635297Y-66626233D01*
X103829205Y-66706553D01*
X104035057Y-66747500D01*
X104035059Y-66747500D01*
X104244941Y-66747500D01*
X104244943Y-66747500D01*
X104450795Y-66706553D01*
X104644703Y-66626233D01*
X104819216Y-66509628D01*
X104967628Y-66361216D01*
X105084233Y-66186703D01*
X105164553Y-65992795D01*
X105205500Y-65786943D01*
X105205500Y-65277057D01*
X105614500Y-65277057D01*
X105614500Y-65786943D01*
X105622422Y-65826768D01*
X105655445Y-65992789D01*
X105655447Y-65992795D01*
X105735767Y-66186703D01*
X105852372Y-66361216D01*
X106000784Y-66509628D01*
X106175297Y-66626233D01*
X106369205Y-66706553D01*
X106575057Y-66747500D01*
X106575059Y-66747500D01*
X106784941Y-66747500D01*
X106784943Y-66747500D01*
X106990795Y-66706553D01*
X107184703Y-66626233D01*
X107359216Y-66509628D01*
X107507628Y-66361216D01*
X107624233Y-66186703D01*
X107704553Y-65992795D01*
X107745500Y-65786943D01*
X107745500Y-65277057D01*
X107704553Y-65071205D01*
X107624233Y-64877297D01*
X107507628Y-64702784D01*
X107359216Y-64554372D01*
X107236250Y-64472210D01*
X108055000Y-64472210D01*
X108055000Y-65282000D01*
X108775440Y-65282000D01*
X108744755Y-65335147D01*
X108710000Y-65464857D01*
X108710000Y-65599143D01*
X108744755Y-65728853D01*
X108775440Y-65782000D01*
X108055001Y-65782000D01*
X108055001Y-66591792D01*
X108057908Y-66616868D01*
X108057910Y-66616874D01*
X108103213Y-66719478D01*
X108182521Y-66798786D01*
X108285124Y-66844089D01*
X108285123Y-66844089D01*
X108310210Y-66846999D01*
X108970000Y-66846999D01*
X108970000Y-65976560D01*
X109023147Y-66007245D01*
X109152857Y-66042000D01*
X109287143Y-66042000D01*
X109416853Y-66007245D01*
X109470000Y-65976560D01*
X109470000Y-66846999D01*
X110129792Y-66846999D01*
X110154868Y-66844091D01*
X110154874Y-66844089D01*
X110257478Y-66798786D01*
X110336786Y-66719478D01*
X110382089Y-66616875D01*
X110385000Y-66591789D01*
X110385000Y-65782000D01*
X109664560Y-65782000D01*
X109695245Y-65728853D01*
X109730000Y-65599143D01*
X109730000Y-65464857D01*
X109695245Y-65335147D01*
X109664560Y-65282000D01*
X110384999Y-65282000D01*
X110384999Y-64472207D01*
X110382091Y-64447131D01*
X110382089Y-64447125D01*
X110336786Y-64344521D01*
X110257478Y-64265213D01*
X110154875Y-64219910D01*
X110154876Y-64219910D01*
X110129789Y-64217000D01*
X109470000Y-64217000D01*
X109470000Y-65087439D01*
X109416853Y-65056755D01*
X109287143Y-65022000D01*
X109152857Y-65022000D01*
X109023147Y-65056755D01*
X108970000Y-65087439D01*
X108970000Y-64217000D01*
X108310207Y-64217000D01*
X108285131Y-64219908D01*
X108285125Y-64219910D01*
X108182521Y-64265213D01*
X108103213Y-64344521D01*
X108057910Y-64447124D01*
X108055000Y-64472210D01*
X107236250Y-64472210D01*
X107236246Y-64472207D01*
X107184703Y-64437767D01*
X106990795Y-64357447D01*
X106990789Y-64357445D01*
X106852938Y-64330025D01*
X106784943Y-64316500D01*
X106575057Y-64316500D01*
X106516699Y-64328108D01*
X106369210Y-64357445D01*
X106369204Y-64357447D01*
X106175296Y-64437767D01*
X106000784Y-64554371D01*
X106000783Y-64554373D01*
X105852373Y-64702783D01*
X105852371Y-64702784D01*
X105735767Y-64877296D01*
X105655447Y-65071204D01*
X105655445Y-65071210D01*
X105622422Y-65237230D01*
X105614500Y-65277057D01*
X105205500Y-65277057D01*
X105164553Y-65071205D01*
X105084233Y-64877297D01*
X104967628Y-64702784D01*
X104819216Y-64554372D01*
X104696246Y-64472207D01*
X104644703Y-64437767D01*
X104450795Y-64357447D01*
X104450789Y-64357445D01*
X104312938Y-64330025D01*
X104244943Y-64316500D01*
X104035057Y-64316500D01*
X103976699Y-64328108D01*
X103829210Y-64357445D01*
X103829204Y-64357447D01*
X103635296Y-64437767D01*
X103460784Y-64554371D01*
X103460783Y-64554373D01*
X103312373Y-64702783D01*
X103312371Y-64702784D01*
X103195767Y-64877296D01*
X103115447Y-65071204D01*
X103115445Y-65071210D01*
X103082422Y-65237230D01*
X103074500Y-65277057D01*
X102665500Y-65277057D01*
X102624553Y-65071205D01*
X102544233Y-64877297D01*
X102427628Y-64702784D01*
X102279216Y-64554372D01*
X102156246Y-64472207D01*
X102104703Y-64437767D01*
X101910795Y-64357447D01*
X101910789Y-64357445D01*
X101772938Y-64330025D01*
X101704943Y-64316500D01*
X101495057Y-64316500D01*
X101436699Y-64328108D01*
X101289210Y-64357445D01*
X101289204Y-64357447D01*
X101095296Y-64437767D01*
X100920784Y-64554371D01*
X100920783Y-64554373D01*
X100772373Y-64702783D01*
X100772371Y-64702784D01*
X100655767Y-64877296D01*
X100575447Y-65071204D01*
X100575445Y-65071210D01*
X100542422Y-65237230D01*
X100534500Y-65277057D01*
X99332667Y-65277057D01*
X99463954Y-65237232D01*
X99646450Y-65139685D01*
X99806410Y-65008410D01*
X99937685Y-64848450D01*
X100035232Y-64665954D01*
X100095300Y-64467934D01*
X100115583Y-64262000D01*
X100095300Y-64056066D01*
X100035232Y-63858046D01*
X99937685Y-63675550D01*
X99806410Y-63515590D01*
X99646450Y-63384315D01*
X99463954Y-63286768D01*
X99352158Y-63252855D01*
X99265935Y-63226700D01*
X99060000Y-63206417D01*
X98854064Y-63226700D01*
X98656043Y-63286769D01*
X98473546Y-63384317D01*
X98411444Y-63435282D01*
X98357246Y-63451723D01*
X98307297Y-63425023D01*
X98290500Y-63378079D01*
X98290500Y-62605919D01*
X98312174Y-62553593D01*
X98364500Y-62531919D01*
X98411445Y-62548717D01*
X98473545Y-62599682D01*
X98473548Y-62599684D01*
X98473550Y-62599685D01*
X98656046Y-62697232D01*
X98854066Y-62757300D01*
X99060000Y-62777583D01*
X99265934Y-62757300D01*
X99463954Y-62697232D01*
X99646450Y-62599685D01*
X99806410Y-62468410D01*
X99937685Y-62308450D01*
X100035232Y-62125954D01*
X100095300Y-61927934D01*
X100115583Y-61722000D01*
X100095300Y-61516066D01*
X100035232Y-61318046D01*
X99937685Y-61135550D01*
X99806410Y-60975590D01*
X99646450Y-60844315D01*
X99463954Y-60746768D01*
X99352158Y-60712855D01*
X99265935Y-60686700D01*
X99060000Y-60666417D01*
X98854064Y-60686700D01*
X98656043Y-60746769D01*
X98473546Y-60844317D01*
X98411444Y-60895282D01*
X98357246Y-60911723D01*
X98307297Y-60885023D01*
X98290500Y-60838079D01*
X98290500Y-60065919D01*
X98312174Y-60013593D01*
X98364500Y-59991919D01*
X98411445Y-60008717D01*
X98473545Y-60059682D01*
X98473548Y-60059684D01*
X98473550Y-60059685D01*
X98656046Y-60157232D01*
X98854066Y-60217300D01*
X99060000Y-60237583D01*
X99265934Y-60217300D01*
X99463954Y-60157232D01*
X99646450Y-60059685D01*
X99806410Y-59928410D01*
X99937685Y-59768450D01*
X100035232Y-59585954D01*
X100095300Y-59387934D01*
X100115583Y-59182000D01*
X100109698Y-59122253D01*
X103804500Y-59122253D01*
X103804500Y-60511746D01*
X103816133Y-60570232D01*
X103845608Y-60614343D01*
X103860448Y-60636552D01*
X103886912Y-60654235D01*
X103926767Y-60680866D01*
X103926768Y-60680866D01*
X103926769Y-60680867D01*
X103985252Y-60692500D01*
X103985254Y-60692500D01*
X105374746Y-60692500D01*
X105374748Y-60692500D01*
X105433231Y-60680867D01*
X105499552Y-60636552D01*
X105543867Y-60570231D01*
X105555500Y-60511748D01*
X105555500Y-59817000D01*
X105799678Y-59817000D01*
X105811387Y-59928409D01*
X105818916Y-60000034D01*
X105875784Y-60175057D01*
X105967802Y-60334436D01*
X105967805Y-60334441D01*
X106090952Y-60471209D01*
X106239832Y-60579377D01*
X106239839Y-60579381D01*
X106407966Y-60654236D01*
X106587981Y-60692500D01*
X106587982Y-60692500D01*
X106772018Y-60692500D01*
X106772019Y-60692500D01*
X106952034Y-60654236D01*
X107120161Y-60579381D01*
X107269050Y-60471207D01*
X107392195Y-60334440D01*
X107484214Y-60175059D01*
X107490007Y-60157232D01*
X107534929Y-60018974D01*
X107541085Y-60000029D01*
X107560322Y-59817000D01*
X107799678Y-59817000D01*
X107811387Y-59928409D01*
X107818916Y-60000034D01*
X107875784Y-60175057D01*
X107967802Y-60334436D01*
X107967805Y-60334441D01*
X108090952Y-60471209D01*
X108239832Y-60579377D01*
X108239839Y-60579381D01*
X108407966Y-60654236D01*
X108587981Y-60692500D01*
X108587982Y-60692500D01*
X108772018Y-60692500D01*
X108772019Y-60692500D01*
X108952034Y-60654236D01*
X109120161Y-60579381D01*
X109269050Y-60471207D01*
X109392195Y-60334440D01*
X109484214Y-60175059D01*
X109490007Y-60157232D01*
X109534929Y-60018974D01*
X109541085Y-60000029D01*
X109560322Y-59817000D01*
X109541085Y-59633971D01*
X109525483Y-59585954D01*
X109484215Y-59458942D01*
X109392197Y-59299563D01*
X109392194Y-59299558D01*
X109269047Y-59162790D01*
X109120167Y-59054622D01*
X109120160Y-59054618D01*
X108952035Y-58979764D01*
X108952033Y-58979763D01*
X108810282Y-58949633D01*
X108772019Y-58941500D01*
X108587981Y-58941500D01*
X108556425Y-58948207D01*
X108407966Y-58979763D01*
X108407964Y-58979764D01*
X108239839Y-59054618D01*
X108239832Y-59054622D01*
X108090952Y-59162790D01*
X107967805Y-59299558D01*
X107967802Y-59299563D01*
X107875784Y-59458942D01*
X107818916Y-59633965D01*
X107818915Y-59633969D01*
X107818915Y-59633971D01*
X107799678Y-59817000D01*
X107560322Y-59817000D01*
X107541085Y-59633971D01*
X107525483Y-59585954D01*
X107484215Y-59458942D01*
X107392197Y-59299563D01*
X107392194Y-59299558D01*
X107269047Y-59162790D01*
X107120167Y-59054622D01*
X107120160Y-59054618D01*
X106952035Y-58979764D01*
X106952033Y-58979763D01*
X106810282Y-58949633D01*
X106772019Y-58941500D01*
X106587981Y-58941500D01*
X106556425Y-58948207D01*
X106407966Y-58979763D01*
X106407964Y-58979764D01*
X106239839Y-59054618D01*
X106239832Y-59054622D01*
X106090952Y-59162790D01*
X105967805Y-59299558D01*
X105967802Y-59299563D01*
X105875784Y-59458942D01*
X105818916Y-59633965D01*
X105818915Y-59633969D01*
X105818915Y-59633971D01*
X105799678Y-59817000D01*
X105555500Y-59817000D01*
X105555500Y-59122252D01*
X105543867Y-59063769D01*
X105537752Y-59054618D01*
X105529027Y-59041560D01*
X105499552Y-58997448D01*
X105477343Y-58982608D01*
X105433232Y-58953133D01*
X105433233Y-58953133D01*
X105403989Y-58947316D01*
X105374748Y-58941500D01*
X103985252Y-58941500D01*
X103956010Y-58947316D01*
X103926767Y-58953133D01*
X103860449Y-58997447D01*
X103860447Y-58997449D01*
X103816133Y-59063767D01*
X103804500Y-59122253D01*
X100109698Y-59122253D01*
X100095300Y-58976066D01*
X100035232Y-58778046D01*
X99937685Y-58595550D01*
X99806410Y-58435590D01*
X99646450Y-58304315D01*
X99463954Y-58206768D01*
X99352158Y-58172855D01*
X99265935Y-58146700D01*
X99060000Y-58126417D01*
X98854064Y-58146700D01*
X98656043Y-58206769D01*
X98473546Y-58304317D01*
X98411444Y-58355282D01*
X98357246Y-58371723D01*
X98307297Y-58345023D01*
X98290500Y-58298079D01*
X98290500Y-57525919D01*
X98312174Y-57473593D01*
X98364500Y-57451919D01*
X98411445Y-57468717D01*
X98473545Y-57519682D01*
X98473548Y-57519684D01*
X98473550Y-57519685D01*
X98656046Y-57617232D01*
X98854066Y-57677300D01*
X99060000Y-57697583D01*
X99265934Y-57677300D01*
X99463954Y-57617232D01*
X99646450Y-57519685D01*
X99806410Y-57388410D01*
X99937685Y-57228450D01*
X100035232Y-57045954D01*
X100095300Y-56847934D01*
X100115583Y-56642000D01*
X100095300Y-56436066D01*
X100035232Y-56238046D01*
X99937685Y-56055550D01*
X99806410Y-55895590D01*
X99646450Y-55764315D01*
X99463954Y-55666768D01*
X99352158Y-55632855D01*
X99265935Y-55606700D01*
X99060000Y-55586417D01*
X98854064Y-55606700D01*
X98656043Y-55666769D01*
X98473546Y-55764317D01*
X98411444Y-55815282D01*
X98357246Y-55831723D01*
X98307297Y-55805023D01*
X98290500Y-55758079D01*
X98290500Y-55163058D01*
X100524500Y-55163058D01*
X100524500Y-55672941D01*
X100565445Y-55878789D01*
X100565447Y-55878795D01*
X100645767Y-56072703D01*
X100762372Y-56247216D01*
X100910784Y-56395628D01*
X101085297Y-56512233D01*
X101279205Y-56592553D01*
X101485057Y-56633500D01*
X101485059Y-56633500D01*
X101694941Y-56633500D01*
X101694943Y-56633500D01*
X101900795Y-56592553D01*
X102094703Y-56512233D01*
X102269216Y-56395628D01*
X102417628Y-56247216D01*
X102534233Y-56072703D01*
X102614553Y-55878795D01*
X102655500Y-55672943D01*
X102655500Y-55163058D01*
X103064500Y-55163058D01*
X103064500Y-55672941D01*
X103105445Y-55878789D01*
X103105447Y-55878795D01*
X103185767Y-56072703D01*
X103302372Y-56247216D01*
X103450784Y-56395628D01*
X103625297Y-56512233D01*
X103819205Y-56592553D01*
X104025057Y-56633500D01*
X104025059Y-56633500D01*
X104234941Y-56633500D01*
X104234943Y-56633500D01*
X104440795Y-56592553D01*
X104634703Y-56512233D01*
X104809216Y-56395628D01*
X104957628Y-56247216D01*
X105074233Y-56072703D01*
X105154553Y-55878795D01*
X105195500Y-55672943D01*
X105195500Y-55163058D01*
X105604500Y-55163058D01*
X105604500Y-55672941D01*
X105645445Y-55878789D01*
X105645447Y-55878795D01*
X105725767Y-56072703D01*
X105842372Y-56247216D01*
X105990784Y-56395628D01*
X106165297Y-56512233D01*
X106359205Y-56592553D01*
X106565057Y-56633500D01*
X106565059Y-56633500D01*
X106774941Y-56633500D01*
X106774943Y-56633500D01*
X106980795Y-56592553D01*
X107174703Y-56512233D01*
X107349216Y-56395628D01*
X107497628Y-56247216D01*
X107614233Y-56072703D01*
X107694553Y-55878795D01*
X107735500Y-55672943D01*
X107735500Y-55163057D01*
X107694553Y-54957205D01*
X107614233Y-54763297D01*
X107497628Y-54588784D01*
X107349216Y-54440372D01*
X107226250Y-54358210D01*
X108045000Y-54358210D01*
X108045000Y-55168000D01*
X108765440Y-55168000D01*
X108734755Y-55221147D01*
X108700000Y-55350857D01*
X108700000Y-55485143D01*
X108734755Y-55614853D01*
X108765440Y-55668000D01*
X108045001Y-55668000D01*
X108045001Y-56477792D01*
X108047908Y-56502868D01*
X108047910Y-56502874D01*
X108093213Y-56605478D01*
X108172521Y-56684786D01*
X108275124Y-56730089D01*
X108275123Y-56730089D01*
X108300210Y-56732999D01*
X108960000Y-56732999D01*
X108960000Y-55862560D01*
X109013147Y-55893245D01*
X109142857Y-55928000D01*
X109277143Y-55928000D01*
X109406853Y-55893245D01*
X109460000Y-55862560D01*
X109460000Y-56732999D01*
X110119792Y-56732999D01*
X110144868Y-56730091D01*
X110144874Y-56730089D01*
X110247478Y-56684786D01*
X110326786Y-56605478D01*
X110372089Y-56502875D01*
X110375000Y-56477789D01*
X110375000Y-55668000D01*
X109654560Y-55668000D01*
X109685245Y-55614853D01*
X109720000Y-55485143D01*
X109720000Y-55350857D01*
X109685245Y-55221147D01*
X109654560Y-55168000D01*
X110374999Y-55168000D01*
X110374999Y-54358207D01*
X110372091Y-54333131D01*
X110372089Y-54333125D01*
X110326786Y-54230521D01*
X110247478Y-54151213D01*
X110144875Y-54105910D01*
X110144876Y-54105910D01*
X110119789Y-54103000D01*
X109460000Y-54103000D01*
X109460000Y-54973439D01*
X109406853Y-54942755D01*
X109277143Y-54908000D01*
X109142857Y-54908000D01*
X109013147Y-54942755D01*
X108960000Y-54973439D01*
X108960000Y-54103000D01*
X108300207Y-54103000D01*
X108275131Y-54105908D01*
X108275125Y-54105910D01*
X108172521Y-54151213D01*
X108093213Y-54230521D01*
X108047910Y-54333124D01*
X108045000Y-54358210D01*
X107226250Y-54358210D01*
X107226246Y-54358207D01*
X107174703Y-54323767D01*
X106980795Y-54243447D01*
X106980789Y-54243445D01*
X106842938Y-54216025D01*
X106774943Y-54202500D01*
X106565057Y-54202500D01*
X106506699Y-54214108D01*
X106359210Y-54243445D01*
X106359204Y-54243447D01*
X106165296Y-54323767D01*
X105990784Y-54440371D01*
X105990783Y-54440373D01*
X105842373Y-54588783D01*
X105842371Y-54588784D01*
X105725767Y-54763296D01*
X105645447Y-54957204D01*
X105645445Y-54957210D01*
X105604500Y-55163058D01*
X105195500Y-55163058D01*
X105195500Y-55163057D01*
X105154553Y-54957205D01*
X105074233Y-54763297D01*
X104957628Y-54588784D01*
X104809216Y-54440372D01*
X104686246Y-54358207D01*
X104634703Y-54323767D01*
X104440795Y-54243447D01*
X104440789Y-54243445D01*
X104302938Y-54216025D01*
X104234943Y-54202500D01*
X104025057Y-54202500D01*
X103966699Y-54214108D01*
X103819210Y-54243445D01*
X103819204Y-54243447D01*
X103625296Y-54323767D01*
X103450784Y-54440371D01*
X103450783Y-54440373D01*
X103302373Y-54588783D01*
X103302371Y-54588784D01*
X103185767Y-54763296D01*
X103105447Y-54957204D01*
X103105445Y-54957210D01*
X103064500Y-55163058D01*
X102655500Y-55163058D01*
X102655500Y-55163057D01*
X102614553Y-54957205D01*
X102534233Y-54763297D01*
X102417628Y-54588784D01*
X102269216Y-54440372D01*
X102146246Y-54358207D01*
X102094703Y-54323767D01*
X101900795Y-54243447D01*
X101900789Y-54243445D01*
X101762938Y-54216025D01*
X101694943Y-54202500D01*
X101485057Y-54202500D01*
X101426699Y-54214108D01*
X101279210Y-54243445D01*
X101279204Y-54243447D01*
X101085296Y-54323767D01*
X100910784Y-54440371D01*
X100910783Y-54440373D01*
X100762373Y-54588783D01*
X100762371Y-54588784D01*
X100645767Y-54763296D01*
X100565447Y-54957204D01*
X100565445Y-54957210D01*
X100524500Y-55163058D01*
X98290500Y-55163058D01*
X98290500Y-54985919D01*
X98312174Y-54933593D01*
X98364500Y-54911919D01*
X98411445Y-54928717D01*
X98473545Y-54979682D01*
X98473548Y-54979684D01*
X98473550Y-54979685D01*
X98656046Y-55077232D01*
X98854066Y-55137300D01*
X99060000Y-55157583D01*
X99265934Y-55137300D01*
X99463954Y-55077232D01*
X99646450Y-54979685D01*
X99806410Y-54848410D01*
X99937685Y-54688450D01*
X100035232Y-54505954D01*
X100095300Y-54307934D01*
X100115583Y-54102000D01*
X100095300Y-53896066D01*
X100035232Y-53698046D01*
X99937685Y-53515550D01*
X99806410Y-53355590D01*
X99646450Y-53224315D01*
X99463954Y-53126768D01*
X99352158Y-53092855D01*
X99265935Y-53066700D01*
X99060000Y-53046417D01*
X98854064Y-53066700D01*
X98656043Y-53126769D01*
X98473546Y-53224317D01*
X98411444Y-53275282D01*
X98357246Y-53291723D01*
X98307297Y-53265023D01*
X98290500Y-53218079D01*
X98290500Y-52445919D01*
X98312174Y-52393593D01*
X98364500Y-52371919D01*
X98411445Y-52388717D01*
X98473545Y-52439682D01*
X98473548Y-52439684D01*
X98473550Y-52439685D01*
X98656046Y-52537232D01*
X98854066Y-52597300D01*
X99060000Y-52617583D01*
X99265934Y-52597300D01*
X99463954Y-52537232D01*
X99646450Y-52439685D01*
X99806410Y-52308410D01*
X99937685Y-52148450D01*
X100035232Y-51965954D01*
X100095300Y-51767934D01*
X100115583Y-51562000D01*
X100095300Y-51356066D01*
X100035232Y-51158046D01*
X99937685Y-50975550D01*
X99806410Y-50815590D01*
X99646450Y-50684315D01*
X99463954Y-50586768D01*
X99352158Y-50552855D01*
X99265935Y-50526700D01*
X99060000Y-50506417D01*
X98854064Y-50526700D01*
X98656043Y-50586769D01*
X98473546Y-50684317D01*
X98411444Y-50735282D01*
X98357246Y-50751723D01*
X98307297Y-50725023D01*
X98290500Y-50678079D01*
X98290500Y-50146500D01*
X98312174Y-50094174D01*
X98364500Y-50072500D01*
X99929746Y-50072500D01*
X99929748Y-50072500D01*
X99988231Y-50060867D01*
X100054552Y-50016552D01*
X100098867Y-49950231D01*
X100110500Y-49891748D01*
X100110500Y-48962253D01*
X103804500Y-48962253D01*
X103804500Y-50351746D01*
X103816133Y-50410232D01*
X103843483Y-50451163D01*
X103860448Y-50476552D01*
X103886912Y-50494235D01*
X103926767Y-50520866D01*
X103926768Y-50520866D01*
X103926769Y-50520867D01*
X103985252Y-50532500D01*
X103985254Y-50532500D01*
X105374746Y-50532500D01*
X105374748Y-50532500D01*
X105433231Y-50520867D01*
X105499552Y-50476552D01*
X105543867Y-50410231D01*
X105555500Y-50351748D01*
X105555500Y-49657000D01*
X105799678Y-49657000D01*
X105818916Y-49840034D01*
X105875784Y-50015057D01*
X105967802Y-50174436D01*
X105967805Y-50174441D01*
X106090952Y-50311209D01*
X106239832Y-50419377D01*
X106239839Y-50419381D01*
X106407966Y-50494236D01*
X106587981Y-50532500D01*
X106587982Y-50532500D01*
X106772018Y-50532500D01*
X106772019Y-50532500D01*
X106952034Y-50494236D01*
X107120161Y-50419381D01*
X107130321Y-50412000D01*
X107269047Y-50311209D01*
X107269046Y-50311209D01*
X107269050Y-50311207D01*
X107392195Y-50174440D01*
X107484214Y-50015059D01*
X107541085Y-49840029D01*
X107560322Y-49657000D01*
X107799678Y-49657000D01*
X107818916Y-49840034D01*
X107875784Y-50015057D01*
X107967802Y-50174436D01*
X107967805Y-50174441D01*
X108090952Y-50311209D01*
X108239832Y-50419377D01*
X108239839Y-50419381D01*
X108407966Y-50494236D01*
X108587981Y-50532500D01*
X108587982Y-50532500D01*
X108772018Y-50532500D01*
X108772019Y-50532500D01*
X108952034Y-50494236D01*
X109120161Y-50419381D01*
X109130321Y-50412000D01*
X109269047Y-50311209D01*
X109269046Y-50311209D01*
X109269050Y-50311207D01*
X109392195Y-50174440D01*
X109484214Y-50015059D01*
X109541085Y-49840029D01*
X109560322Y-49657000D01*
X109541085Y-49473971D01*
X109537127Y-49461789D01*
X109484215Y-49298942D01*
X109392197Y-49139563D01*
X109392194Y-49139558D01*
X109269047Y-49002790D01*
X109120167Y-48894622D01*
X109120160Y-48894618D01*
X108952035Y-48819764D01*
X108952033Y-48819763D01*
X108810282Y-48789633D01*
X108772019Y-48781500D01*
X108587981Y-48781500D01*
X108556425Y-48788207D01*
X108407966Y-48819763D01*
X108407964Y-48819764D01*
X108239839Y-48894618D01*
X108239832Y-48894622D01*
X108090952Y-49002790D01*
X107967805Y-49139558D01*
X107967802Y-49139563D01*
X107875784Y-49298942D01*
X107818916Y-49473965D01*
X107799678Y-49657000D01*
X107560322Y-49657000D01*
X107541085Y-49473971D01*
X107537127Y-49461789D01*
X107484215Y-49298942D01*
X107392197Y-49139563D01*
X107392194Y-49139558D01*
X107269047Y-49002790D01*
X107120167Y-48894622D01*
X107120160Y-48894618D01*
X106952035Y-48819764D01*
X106952033Y-48819763D01*
X106810282Y-48789633D01*
X106772019Y-48781500D01*
X106587981Y-48781500D01*
X106556425Y-48788207D01*
X106407966Y-48819763D01*
X106407964Y-48819764D01*
X106239839Y-48894618D01*
X106239832Y-48894622D01*
X106090952Y-49002790D01*
X105967805Y-49139558D01*
X105967802Y-49139563D01*
X105875784Y-49298942D01*
X105818916Y-49473965D01*
X105799678Y-49657000D01*
X105555500Y-49657000D01*
X105555500Y-48962252D01*
X105543867Y-48903769D01*
X105537752Y-48894618D01*
X105529027Y-48881560D01*
X105499552Y-48837448D01*
X105477343Y-48822608D01*
X105433232Y-48793133D01*
X105433233Y-48793133D01*
X105403989Y-48787316D01*
X105374748Y-48781500D01*
X103985252Y-48781500D01*
X103956010Y-48787316D01*
X103926767Y-48793133D01*
X103860449Y-48837447D01*
X103860447Y-48837449D01*
X103816133Y-48903767D01*
X103804500Y-48962253D01*
X100110500Y-48962253D01*
X100110500Y-48326500D01*
X100132174Y-48274174D01*
X100184500Y-48252500D01*
X110635500Y-48252500D01*
X110687826Y-48274174D01*
G37*
%TD.AperFunction*%
%TD*%
M02*
