%TF.GenerationSoftware,KiCad,Pcbnew,8.0.4*%
%TF.CreationDate,2024-08-22T16:07:43-07:00*%
%TF.ProjectId,tmtua,746d7475-612e-46b6-9963-61645f706362,0.1*%
%TF.SameCoordinates,Original*%
%TF.FileFunction,Copper,L1,Top*%
%TF.FilePolarity,Positive*%
%FSLAX46Y46*%
G04 Gerber Fmt 4.6, Leading zero omitted, Abs format (unit mm)*
G04 Created by KiCad (PCBNEW 8.0.4) date 2024-08-22 16:07:43*
%MOMM*%
%LPD*%
G01*
G04 APERTURE LIST*
%TA.AperFunction,ComponentPad*%
%ADD10R,1.350000X1.350000*%
%TD*%
%TA.AperFunction,ComponentPad*%
%ADD11O,1.350000X1.350000*%
%TD*%
%TA.AperFunction,ComponentPad*%
%ADD12R,1.730000X2.030000*%
%TD*%
%TA.AperFunction,ComponentPad*%
%ADD13O,1.730000X2.030000*%
%TD*%
%TA.AperFunction,ComponentPad*%
%ADD14R,1.700000X1.700000*%
%TD*%
%TA.AperFunction,ComponentPad*%
%ADD15O,1.700000X1.700000*%
%TD*%
%TA.AperFunction,Conductor*%
%ADD16C,0.200000*%
%TD*%
%TA.AperFunction,Conductor*%
%ADD17C,0.300000*%
%TD*%
G04 APERTURE END LIST*
D10*
%TO.P,J4,1,Pin_1*%
%TO.N,VM*%
X145320000Y-94615000D03*
D11*
%TO.P,J4,2,Pin_2*%
%TO.N,/vfan1*%
X147320000Y-94615000D03*
%TO.P,J4,3,Pin_3*%
%TO.N,+5V*%
X149320000Y-94615000D03*
%TD*%
D12*
%TO.P,CN1,1,Pin_1*%
%TO.N,GND*%
X149850000Y-90216000D03*
D13*
%TO.P,CN1,2,Pin_2*%
%TO.N,/vfan0*%
X147310000Y-90216000D03*
%TO.P,CN1,3,Pin_3*%
%TO.N,/tach0*%
X144770000Y-90216000D03*
%TO.P,CN1,4,Pin_4*%
%TO.N,/pwm0*%
X142230000Y-90216000D03*
%TD*%
D12*
%TO.P,CN2,1,Pin_1*%
%TO.N,GND*%
X149860000Y-100330000D03*
D13*
%TO.P,CN2,2,Pin_2*%
%TO.N,/vfan1*%
X147320000Y-100330000D03*
%TO.P,CN2,3,Pin_3*%
%TO.N,/tach1*%
X144780000Y-100330000D03*
%TO.P,CN2,4,Pin_4*%
%TO.N,/pwm1*%
X142240000Y-100330000D03*
%TD*%
D10*
%TO.P,J3,1,Pin_1*%
%TO.N,VM*%
X145320000Y-84455000D03*
D11*
%TO.P,J3,2,Pin_2*%
%TO.N,/vfan0*%
X147320000Y-84455000D03*
%TO.P,J3,3,Pin_3*%
%TO.N,+5V*%
X149320000Y-84455000D03*
%TD*%
D14*
%TO.P,J2,1,Pin_1*%
%TO.N,VM*%
X152400000Y-83820000D03*
D15*
%TO.P,J2,2,Pin_2*%
%TO.N,GND*%
X152400000Y-86360000D03*
%TO.P,J2,3,Pin_3*%
%TO.N,unconnected-(J2-Pin_3-Pad3)*%
X152400000Y-88900000D03*
%TO.P,J2,4,Pin_4*%
%TO.N,unconnected-(J2-Pin_4-Pad4)*%
X152400000Y-91440000D03*
%TO.P,J2,5,Pin_5*%
%TO.N,unconnected-(J2-Pin_5-Pad5)*%
X152400000Y-93980000D03*
%TO.P,J2,6,Pin_6*%
%TO.N,unconnected-(J2-Pin_6-Pad6)*%
X152400000Y-96520000D03*
%TO.P,J2,7,Pin_7*%
%TO.N,+5V*%
X152400000Y-99060000D03*
%TO.P,J2,8,Pin_8*%
%TO.N,GND*%
X152400000Y-101600000D03*
%TD*%
D14*
%TO.P,J1,1,Pin_1*%
%TO.N,/tach0*%
X139700000Y-83820000D03*
D15*
%TO.P,J1,2,Pin_2*%
%TO.N,unconnected-(J1-Pin_2-Pad2)*%
X139700000Y-86360000D03*
%TO.P,J1,3,Pin_3*%
%TO.N,unconnected-(J1-Pin_3-Pad3)*%
X139700000Y-88900000D03*
%TO.P,J1,4,Pin_4*%
%TO.N,/tach1*%
X139700000Y-91440000D03*
%TO.P,J1,5,Pin_5*%
%TO.N,unconnected-(J1-Pin_5-Pad5)*%
X139700000Y-93980000D03*
%TO.P,J1,6,Pin_6*%
%TO.N,unconnected-(J1-Pin_6-Pad6)*%
X139700000Y-96520000D03*
%TO.P,J1,7,Pin_7*%
%TO.N,/pwm0*%
X139700000Y-99060000D03*
%TO.P,J1,8,Pin_8*%
%TO.N,/pwm1*%
X139700000Y-101600000D03*
%TD*%
D16*
%TO.N,/tach0*%
X144770000Y-90216000D02*
X144770000Y-87366000D01*
X144770000Y-87366000D02*
X141224000Y-83820000D01*
X141224000Y-83820000D02*
X139700000Y-83820000D01*
%TO.N,/pwm0*%
X142230000Y-96530000D02*
X139700000Y-99060000D01*
X142230000Y-90216000D02*
X142230000Y-96530000D01*
%TO.N,/pwm1*%
X142240000Y-100330000D02*
X140970000Y-100330000D01*
X140970000Y-100330000D02*
X139700000Y-101600000D01*
%TO.N,/tach1*%
X139700000Y-90932000D02*
X139700000Y-91440000D01*
X143442396Y-98992396D02*
X143442396Y-89594396D01*
X141731000Y-88901000D02*
X139700000Y-90932000D01*
X144780000Y-100330000D02*
X143442396Y-98992396D01*
X143442396Y-89594396D02*
X142749000Y-88901000D01*
X142749000Y-88901000D02*
X141731000Y-88901000D01*
D17*
%TO.N,+5V*%
X148580462Y-93875462D02*
X148580462Y-85194538D01*
X152400000Y-99060000D02*
X149320000Y-95980000D01*
X149320000Y-94615000D02*
X148580462Y-93875462D01*
X148580462Y-85194538D02*
X149320000Y-84455000D01*
X149320000Y-95980000D02*
X149320000Y-94615000D01*
%TO.N,VM*%
X146050000Y-91694000D02*
X145320000Y-92424000D01*
X145320000Y-88424000D02*
X146050000Y-89154000D01*
X152400000Y-83820000D02*
X151892000Y-83312000D01*
X146463000Y-83312000D02*
X145320000Y-84455000D01*
X145320000Y-84455000D02*
X145320000Y-88424000D01*
X151892000Y-83312000D02*
X146463000Y-83312000D01*
X146050000Y-89154000D02*
X146050000Y-91694000D01*
X145320000Y-92424000D02*
X145320000Y-94615000D01*
%TO.N,/vfan0*%
X147320000Y-90206000D02*
X147310000Y-90216000D01*
X147320000Y-84455000D02*
X147320000Y-90206000D01*
%TO.N,/vfan1*%
X147320000Y-94615000D02*
X147320000Y-100330000D01*
%TD*%
M02*
