%TF.GenerationSoftware,KiCad,Pcbnew,8.0.4*%
%TF.CreationDate,2024-08-22T16:07:43-07:00*%
%TF.ProjectId,tmtua,746d7475-612e-46b6-9963-61645f706362,0.1*%
%TF.SameCoordinates,Original*%
%TF.FileFunction,Legend,Top*%
%TF.FilePolarity,Positive*%
%FSLAX46Y46*%
G04 Gerber Fmt 4.6, Leading zero omitted, Abs format (unit mm)*
G04 Created by KiCad (PCBNEW 8.0.4) date 2024-08-22 16:07:43*
%MOMM*%
%LPD*%
G01*
G04 APERTURE LIST*
%ADD10C,0.100000*%
%ADD11C,0.200000*%
%ADD12C,0.150000*%
%ADD13C,0.120000*%
%ADD14R,1.350000X1.350000*%
%ADD15O,1.350000X1.350000*%
%ADD16R,1.730000X2.030000*%
%ADD17O,1.730000X2.030000*%
%ADD18R,1.700000X1.700000*%
%ADD19O,1.700000X1.700000*%
G04 APERTURE END LIST*
D10*
X145356837Y-85740419D02*
X145690170Y-86740419D01*
X145690170Y-86740419D02*
X146023503Y-85740419D01*
X146356837Y-86740419D02*
X146356837Y-85740419D01*
X146356837Y-85740419D02*
X146690170Y-86454704D01*
X146690170Y-86454704D02*
X147023503Y-85740419D01*
X147023503Y-85740419D02*
X147023503Y-86740419D01*
X140877027Y-85819752D02*
X141257979Y-85819752D01*
X141019884Y-86486419D02*
X141019884Y-85629276D01*
X141019884Y-85629276D02*
X141067503Y-85534038D01*
X141067503Y-85534038D02*
X141162741Y-85486419D01*
X141162741Y-85486419D02*
X141257979Y-85486419D01*
X142019884Y-86486419D02*
X142019884Y-85962609D01*
X142019884Y-85962609D02*
X141972265Y-85867371D01*
X141972265Y-85867371D02*
X141877027Y-85819752D01*
X141877027Y-85819752D02*
X141686551Y-85819752D01*
X141686551Y-85819752D02*
X141591313Y-85867371D01*
X142019884Y-86438800D02*
X141924646Y-86486419D01*
X141924646Y-86486419D02*
X141686551Y-86486419D01*
X141686551Y-86486419D02*
X141591313Y-86438800D01*
X141591313Y-86438800D02*
X141543694Y-86343561D01*
X141543694Y-86343561D02*
X141543694Y-86248323D01*
X141543694Y-86248323D02*
X141591313Y-86153085D01*
X141591313Y-86153085D02*
X141686551Y-86105466D01*
X141686551Y-86105466D02*
X141924646Y-86105466D01*
X141924646Y-86105466D02*
X142019884Y-86057847D01*
X142496075Y-85819752D02*
X142496075Y-86486419D01*
X142496075Y-85914990D02*
X142543694Y-85867371D01*
X142543694Y-85867371D02*
X142638932Y-85819752D01*
X142638932Y-85819752D02*
X142781789Y-85819752D01*
X142781789Y-85819752D02*
X142877027Y-85867371D01*
X142877027Y-85867371D02*
X142924646Y-85962609D01*
X142924646Y-85962609D02*
X142924646Y-86486419D01*
X143591313Y-85486419D02*
X143686551Y-85486419D01*
X143686551Y-85486419D02*
X143781789Y-85534038D01*
X143781789Y-85534038D02*
X143829408Y-85581657D01*
X143829408Y-85581657D02*
X143877027Y-85676895D01*
X143877027Y-85676895D02*
X143924646Y-85867371D01*
X143924646Y-85867371D02*
X143924646Y-86105466D01*
X143924646Y-86105466D02*
X143877027Y-86295942D01*
X143877027Y-86295942D02*
X143829408Y-86391180D01*
X143829408Y-86391180D02*
X143781789Y-86438800D01*
X143781789Y-86438800D02*
X143686551Y-86486419D01*
X143686551Y-86486419D02*
X143591313Y-86486419D01*
X143591313Y-86486419D02*
X143496075Y-86438800D01*
X143496075Y-86438800D02*
X143448456Y-86391180D01*
X143448456Y-86391180D02*
X143400837Y-86295942D01*
X143400837Y-86295942D02*
X143353218Y-86105466D01*
X143353218Y-86105466D02*
X143353218Y-85867371D01*
X143353218Y-85867371D02*
X143400837Y-85676895D01*
X143400837Y-85676895D02*
X143448456Y-85581657D01*
X143448456Y-85581657D02*
X143496075Y-85534038D01*
X143496075Y-85534038D02*
X143591313Y-85486419D01*
X140877027Y-95979752D02*
X141257979Y-95979752D01*
X141019884Y-96646419D02*
X141019884Y-95789276D01*
X141019884Y-95789276D02*
X141067503Y-95694038D01*
X141067503Y-95694038D02*
X141162741Y-95646419D01*
X141162741Y-95646419D02*
X141257979Y-95646419D01*
X142019884Y-96646419D02*
X142019884Y-96122609D01*
X142019884Y-96122609D02*
X141972265Y-96027371D01*
X141972265Y-96027371D02*
X141877027Y-95979752D01*
X141877027Y-95979752D02*
X141686551Y-95979752D01*
X141686551Y-95979752D02*
X141591313Y-96027371D01*
X142019884Y-96598800D02*
X141924646Y-96646419D01*
X141924646Y-96646419D02*
X141686551Y-96646419D01*
X141686551Y-96646419D02*
X141591313Y-96598800D01*
X141591313Y-96598800D02*
X141543694Y-96503561D01*
X141543694Y-96503561D02*
X141543694Y-96408323D01*
X141543694Y-96408323D02*
X141591313Y-96313085D01*
X141591313Y-96313085D02*
X141686551Y-96265466D01*
X141686551Y-96265466D02*
X141924646Y-96265466D01*
X141924646Y-96265466D02*
X142019884Y-96217847D01*
X142496075Y-95979752D02*
X142496075Y-96646419D01*
X142496075Y-96074990D02*
X142543694Y-96027371D01*
X142543694Y-96027371D02*
X142638932Y-95979752D01*
X142638932Y-95979752D02*
X142781789Y-95979752D01*
X142781789Y-95979752D02*
X142877027Y-96027371D01*
X142877027Y-96027371D02*
X142924646Y-96122609D01*
X142924646Y-96122609D02*
X142924646Y-96646419D01*
X143924646Y-96646419D02*
X143353218Y-96646419D01*
X143638932Y-96646419D02*
X143638932Y-95646419D01*
X143638932Y-95646419D02*
X143543694Y-95789276D01*
X143543694Y-95789276D02*
X143448456Y-95884514D01*
X143448456Y-95884514D02*
X143353218Y-95932133D01*
X148378292Y-95898504D02*
X147902102Y-95898504D01*
X147902102Y-95898504D02*
X147854483Y-96374694D01*
X147854483Y-96374694D02*
X147902102Y-96327075D01*
X147902102Y-96327075D02*
X147997340Y-96279456D01*
X147997340Y-96279456D02*
X148235435Y-96279456D01*
X148235435Y-96279456D02*
X148330673Y-96327075D01*
X148330673Y-96327075D02*
X148378292Y-96374694D01*
X148378292Y-96374694D02*
X148425911Y-96469932D01*
X148425911Y-96469932D02*
X148425911Y-96708027D01*
X148425911Y-96708027D02*
X148378292Y-96803265D01*
X148378292Y-96803265D02*
X148330673Y-96850885D01*
X148330673Y-96850885D02*
X148235435Y-96898504D01*
X148235435Y-96898504D02*
X147997340Y-96898504D01*
X147997340Y-96898504D02*
X147902102Y-96850885D01*
X147902102Y-96850885D02*
X147854483Y-96803265D01*
X148759245Y-96231837D02*
X148997340Y-96898504D01*
X148997340Y-96898504D02*
X149235435Y-96231837D01*
X145356837Y-95900419D02*
X145690170Y-96900419D01*
X145690170Y-96900419D02*
X146023503Y-95900419D01*
X146356837Y-96900419D02*
X146356837Y-95900419D01*
X146356837Y-95900419D02*
X146690170Y-96614704D01*
X146690170Y-96614704D02*
X147023503Y-95900419D01*
X147023503Y-95900419D02*
X147023503Y-96900419D01*
D11*
X141204720Y-83856314D02*
X141704720Y-83856314D01*
X141919006Y-84642028D02*
X141204720Y-84642028D01*
X141204720Y-84642028D02*
X141204720Y-83142028D01*
X141204720Y-83142028D02*
X141919006Y-83142028D01*
X142561863Y-84642028D02*
X142561863Y-83142028D01*
X142561863Y-83142028D02*
X143419006Y-84642028D01*
X143419006Y-84642028D02*
X143419006Y-83142028D01*
D10*
X148378292Y-85738504D02*
X147902102Y-85738504D01*
X147902102Y-85738504D02*
X147854483Y-86214694D01*
X147854483Y-86214694D02*
X147902102Y-86167075D01*
X147902102Y-86167075D02*
X147997340Y-86119456D01*
X147997340Y-86119456D02*
X148235435Y-86119456D01*
X148235435Y-86119456D02*
X148330673Y-86167075D01*
X148330673Y-86167075D02*
X148378292Y-86214694D01*
X148378292Y-86214694D02*
X148425911Y-86309932D01*
X148425911Y-86309932D02*
X148425911Y-86548027D01*
X148425911Y-86548027D02*
X148378292Y-86643265D01*
X148378292Y-86643265D02*
X148330673Y-86690885D01*
X148330673Y-86690885D02*
X148235435Y-86738504D01*
X148235435Y-86738504D02*
X147997340Y-86738504D01*
X147997340Y-86738504D02*
X147902102Y-86690885D01*
X147902102Y-86690885D02*
X147854483Y-86643265D01*
X148759245Y-86071837D02*
X148997340Y-86738504D01*
X148997340Y-86738504D02*
X149235435Y-86071837D01*
D12*
X150584819Y-95075333D02*
X151299104Y-95075333D01*
X151299104Y-95075333D02*
X151441961Y-95122952D01*
X151441961Y-95122952D02*
X151537200Y-95218190D01*
X151537200Y-95218190D02*
X151584819Y-95361047D01*
X151584819Y-95361047D02*
X151584819Y-95456285D01*
X150918152Y-94170571D02*
X151584819Y-94170571D01*
X150537200Y-94408666D02*
X151251485Y-94646761D01*
X151251485Y-94646761D02*
X151251485Y-94027714D01*
X141549523Y-88243580D02*
X141501904Y-88291200D01*
X141501904Y-88291200D02*
X141359047Y-88338819D01*
X141359047Y-88338819D02*
X141263809Y-88338819D01*
X141263809Y-88338819D02*
X141120952Y-88291200D01*
X141120952Y-88291200D02*
X141025714Y-88195961D01*
X141025714Y-88195961D02*
X140978095Y-88100723D01*
X140978095Y-88100723D02*
X140930476Y-87910247D01*
X140930476Y-87910247D02*
X140930476Y-87767390D01*
X140930476Y-87767390D02*
X140978095Y-87576914D01*
X140978095Y-87576914D02*
X141025714Y-87481676D01*
X141025714Y-87481676D02*
X141120952Y-87386438D01*
X141120952Y-87386438D02*
X141263809Y-87338819D01*
X141263809Y-87338819D02*
X141359047Y-87338819D01*
X141359047Y-87338819D02*
X141501904Y-87386438D01*
X141501904Y-87386438D02*
X141549523Y-87434057D01*
X141978095Y-88338819D02*
X141978095Y-87338819D01*
X141978095Y-87338819D02*
X142549523Y-88338819D01*
X142549523Y-88338819D02*
X142549523Y-87338819D01*
X143549523Y-88338819D02*
X142978095Y-88338819D01*
X143263809Y-88338819D02*
X143263809Y-87338819D01*
X143263809Y-87338819D02*
X143168571Y-87481676D01*
X143168571Y-87481676D02*
X143073333Y-87576914D01*
X143073333Y-87576914D02*
X142978095Y-87624533D01*
X141803523Y-98403580D02*
X141755904Y-98451200D01*
X141755904Y-98451200D02*
X141613047Y-98498819D01*
X141613047Y-98498819D02*
X141517809Y-98498819D01*
X141517809Y-98498819D02*
X141374952Y-98451200D01*
X141374952Y-98451200D02*
X141279714Y-98355961D01*
X141279714Y-98355961D02*
X141232095Y-98260723D01*
X141232095Y-98260723D02*
X141184476Y-98070247D01*
X141184476Y-98070247D02*
X141184476Y-97927390D01*
X141184476Y-97927390D02*
X141232095Y-97736914D01*
X141232095Y-97736914D02*
X141279714Y-97641676D01*
X141279714Y-97641676D02*
X141374952Y-97546438D01*
X141374952Y-97546438D02*
X141517809Y-97498819D01*
X141517809Y-97498819D02*
X141613047Y-97498819D01*
X141613047Y-97498819D02*
X141755904Y-97546438D01*
X141755904Y-97546438D02*
X141803523Y-97594057D01*
X142232095Y-98498819D02*
X142232095Y-97498819D01*
X142232095Y-97498819D02*
X142803523Y-98498819D01*
X142803523Y-98498819D02*
X142803523Y-97498819D01*
X143232095Y-97594057D02*
X143279714Y-97546438D01*
X143279714Y-97546438D02*
X143374952Y-97498819D01*
X143374952Y-97498819D02*
X143613047Y-97498819D01*
X143613047Y-97498819D02*
X143708285Y-97546438D01*
X143708285Y-97546438D02*
X143755904Y-97594057D01*
X143755904Y-97594057D02*
X143803523Y-97689295D01*
X143803523Y-97689295D02*
X143803523Y-97784533D01*
X143803523Y-97784533D02*
X143755904Y-97927390D01*
X143755904Y-97927390D02*
X143184476Y-98498819D01*
X143184476Y-98498819D02*
X143803523Y-98498819D01*
X150584819Y-84788333D02*
X151299104Y-84788333D01*
X151299104Y-84788333D02*
X151441961Y-84835952D01*
X151441961Y-84835952D02*
X151537200Y-84931190D01*
X151537200Y-84931190D02*
X151584819Y-85074047D01*
X151584819Y-85074047D02*
X151584819Y-85169285D01*
X150584819Y-84407380D02*
X150584819Y-83788333D01*
X150584819Y-83788333D02*
X150965771Y-84121666D01*
X150965771Y-84121666D02*
X150965771Y-83978809D01*
X150965771Y-83978809D02*
X151013390Y-83883571D01*
X151013390Y-83883571D02*
X151061009Y-83835952D01*
X151061009Y-83835952D02*
X151156247Y-83788333D01*
X151156247Y-83788333D02*
X151394342Y-83788333D01*
X151394342Y-83788333D02*
X151489580Y-83835952D01*
X151489580Y-83835952D02*
X151537200Y-83883571D01*
X151537200Y-83883571D02*
X151584819Y-83978809D01*
X151584819Y-83978809D02*
X151584819Y-84264523D01*
X151584819Y-84264523D02*
X151537200Y-84359761D01*
X151537200Y-84359761D02*
X151489580Y-84407380D01*
D13*
%TO.C,J4*%
X144260000Y-95675000D02*
X144260000Y-94615000D01*
X145320000Y-95675000D02*
X144260000Y-95675000D01*
X146320000Y-93555000D02*
X150380000Y-93555000D01*
X146320000Y-95675000D02*
X146320000Y-93555000D01*
X146320000Y-95675000D02*
X150380000Y-95675000D01*
X150380000Y-95675000D02*
X150380000Y-93555000D01*
%TO.C,CN1*%
X140900000Y-86816000D02*
X151200000Y-86816000D01*
X140900000Y-92766000D02*
X140900000Y-86816000D01*
X144100000Y-92766000D02*
X140900000Y-92766000D01*
X144770000Y-87926000D02*
X144770000Y-86916000D01*
X149850000Y-86916000D02*
X149850000Y-87926000D01*
X149850000Y-87926000D02*
X144770000Y-87926000D01*
X151200000Y-86816000D02*
X151200000Y-92816000D01*
X151200000Y-92816000D02*
X145450000Y-92816000D01*
%TO.C,CN2*%
X140910000Y-96930000D02*
X151210000Y-96930000D01*
X140910000Y-102880000D02*
X140910000Y-96930000D01*
X144110000Y-102880000D02*
X140910000Y-102880000D01*
X144780000Y-98040000D02*
X144780000Y-97030000D01*
X149860000Y-97030000D02*
X149860000Y-98040000D01*
X149860000Y-98040000D02*
X144780000Y-98040000D01*
X151210000Y-96930000D02*
X151210000Y-102930000D01*
X151210000Y-102930000D02*
X145460000Y-102930000D01*
%TO.C,J3*%
X144260000Y-85515000D02*
X144260000Y-84455000D01*
X145320000Y-85515000D02*
X144260000Y-85515000D01*
X146320000Y-83395000D02*
X150380000Y-83395000D01*
X146320000Y-85515000D02*
X146320000Y-83395000D01*
X146320000Y-85515000D02*
X150380000Y-85515000D01*
X150380000Y-85515000D02*
X150380000Y-83395000D01*
%TD*%
%LPC*%
D14*
%TO.C,J4*%
X145320000Y-94615000D03*
D15*
X147320000Y-94615000D03*
X149320000Y-94615000D03*
%TD*%
D16*
%TO.C,CN1*%
X149850000Y-90216000D03*
D17*
X147310000Y-90216000D03*
X144770000Y-90216000D03*
X142230000Y-90216000D03*
%TD*%
D16*
%TO.C,CN2*%
X149860000Y-100330000D03*
D17*
X147320000Y-100330000D03*
X144780000Y-100330000D03*
X142240000Y-100330000D03*
%TD*%
D14*
%TO.C,J3*%
X145320000Y-84455000D03*
D15*
X147320000Y-84455000D03*
X149320000Y-84455000D03*
%TD*%
D18*
%TO.C,J2*%
X152400000Y-83820000D03*
D19*
X152400000Y-86360000D03*
X152400000Y-88900000D03*
X152400000Y-91440000D03*
X152400000Y-93980000D03*
X152400000Y-96520000D03*
X152400000Y-99060000D03*
X152400000Y-101600000D03*
%TD*%
D18*
%TO.C,J1*%
X139700000Y-83820000D03*
D19*
X139700000Y-86360000D03*
X139700000Y-88900000D03*
X139700000Y-91440000D03*
X139700000Y-93980000D03*
X139700000Y-96520000D03*
X139700000Y-99060000D03*
X139700000Y-101600000D03*
%TD*%
%LPD*%
M02*
