%TF.GenerationSoftware,KiCad,Pcbnew,8.0.4*%
%TF.CreationDate,2024-08-22T16:07:43-07:00*%
%TF.ProjectId,tmtua,746d7475-612e-46b6-9963-61645f706362,0.1*%
%TF.SameCoordinates,Original*%
%TF.FileFunction,Legend,Bot*%
%TF.FilePolarity,Positive*%
%FSLAX46Y46*%
G04 Gerber Fmt 4.6, Leading zero omitted, Abs format (unit mm)*
G04 Created by KiCad (PCBNEW 8.0.4) date 2024-08-22 16:07:43*
%MOMM*%
%LPD*%
G01*
G04 APERTURE LIST*
%ADD10C,0.150000*%
%ADD11C,0.200000*%
%ADD12C,0.120000*%
%ADD13R,1.350000X1.350000*%
%ADD14O,1.350000X1.350000*%
%ADD15R,1.730000X2.030000*%
%ADD16O,1.730000X2.030000*%
%ADD17R,1.700000X1.700000*%
%ADD18O,1.700000X1.700000*%
G04 APERTURE END LIST*
D10*
X144168666Y-91736152D02*
X143787714Y-91736152D01*
X144025809Y-91402819D02*
X144025809Y-92259961D01*
X144025809Y-92259961D02*
X143978190Y-92355200D01*
X143978190Y-92355200D02*
X143882952Y-92402819D01*
X143882952Y-92402819D02*
X143787714Y-92402819D01*
X143025809Y-92402819D02*
X143025809Y-91879009D01*
X143025809Y-91879009D02*
X143073428Y-91783771D01*
X143073428Y-91783771D02*
X143168666Y-91736152D01*
X143168666Y-91736152D02*
X143359142Y-91736152D01*
X143359142Y-91736152D02*
X143454380Y-91783771D01*
X143025809Y-92355200D02*
X143121047Y-92402819D01*
X143121047Y-92402819D02*
X143359142Y-92402819D01*
X143359142Y-92402819D02*
X143454380Y-92355200D01*
X143454380Y-92355200D02*
X143501999Y-92259961D01*
X143501999Y-92259961D02*
X143501999Y-92164723D01*
X143501999Y-92164723D02*
X143454380Y-92069485D01*
X143454380Y-92069485D02*
X143359142Y-92021866D01*
X143359142Y-92021866D02*
X143121047Y-92021866D01*
X143121047Y-92021866D02*
X143025809Y-91974247D01*
X142121047Y-92355200D02*
X142216285Y-92402819D01*
X142216285Y-92402819D02*
X142406761Y-92402819D01*
X142406761Y-92402819D02*
X142501999Y-92355200D01*
X142501999Y-92355200D02*
X142549618Y-92307580D01*
X142549618Y-92307580D02*
X142597237Y-92212342D01*
X142597237Y-92212342D02*
X142597237Y-91926628D01*
X142597237Y-91926628D02*
X142549618Y-91831390D01*
X142549618Y-91831390D02*
X142501999Y-91783771D01*
X142501999Y-91783771D02*
X142406761Y-91736152D01*
X142406761Y-91736152D02*
X142216285Y-91736152D01*
X142216285Y-91736152D02*
X142121047Y-91783771D01*
X141168666Y-92402819D02*
X141740094Y-92402819D01*
X141454380Y-92402819D02*
X141454380Y-91402819D01*
X141454380Y-91402819D02*
X141549618Y-91545676D01*
X141549618Y-91545676D02*
X141644856Y-91640914D01*
X141644856Y-91640914D02*
X141740094Y-91688533D01*
X144168666Y-83608152D02*
X143787714Y-83608152D01*
X144025809Y-83274819D02*
X144025809Y-84131961D01*
X144025809Y-84131961D02*
X143978190Y-84227200D01*
X143978190Y-84227200D02*
X143882952Y-84274819D01*
X143882952Y-84274819D02*
X143787714Y-84274819D01*
X143025809Y-84274819D02*
X143025809Y-83751009D01*
X143025809Y-83751009D02*
X143073428Y-83655771D01*
X143073428Y-83655771D02*
X143168666Y-83608152D01*
X143168666Y-83608152D02*
X143359142Y-83608152D01*
X143359142Y-83608152D02*
X143454380Y-83655771D01*
X143025809Y-84227200D02*
X143121047Y-84274819D01*
X143121047Y-84274819D02*
X143359142Y-84274819D01*
X143359142Y-84274819D02*
X143454380Y-84227200D01*
X143454380Y-84227200D02*
X143501999Y-84131961D01*
X143501999Y-84131961D02*
X143501999Y-84036723D01*
X143501999Y-84036723D02*
X143454380Y-83941485D01*
X143454380Y-83941485D02*
X143359142Y-83893866D01*
X143359142Y-83893866D02*
X143121047Y-83893866D01*
X143121047Y-83893866D02*
X143025809Y-83846247D01*
X142121047Y-84227200D02*
X142216285Y-84274819D01*
X142216285Y-84274819D02*
X142406761Y-84274819D01*
X142406761Y-84274819D02*
X142501999Y-84227200D01*
X142501999Y-84227200D02*
X142549618Y-84179580D01*
X142549618Y-84179580D02*
X142597237Y-84084342D01*
X142597237Y-84084342D02*
X142597237Y-83798628D01*
X142597237Y-83798628D02*
X142549618Y-83703390D01*
X142549618Y-83703390D02*
X142501999Y-83655771D01*
X142501999Y-83655771D02*
X142406761Y-83608152D01*
X142406761Y-83608152D02*
X142216285Y-83608152D01*
X142216285Y-83608152D02*
X142121047Y-83655771D01*
X141501999Y-83274819D02*
X141406761Y-83274819D01*
X141406761Y-83274819D02*
X141311523Y-83322438D01*
X141311523Y-83322438D02*
X141263904Y-83370057D01*
X141263904Y-83370057D02*
X141216285Y-83465295D01*
X141216285Y-83465295D02*
X141168666Y-83655771D01*
X141168666Y-83655771D02*
X141168666Y-83893866D01*
X141168666Y-83893866D02*
X141216285Y-84084342D01*
X141216285Y-84084342D02*
X141263904Y-84179580D01*
X141263904Y-84179580D02*
X141311523Y-84227200D01*
X141311523Y-84227200D02*
X141406761Y-84274819D01*
X141406761Y-84274819D02*
X141501999Y-84274819D01*
X141501999Y-84274819D02*
X141597237Y-84227200D01*
X141597237Y-84227200D02*
X141644856Y-84179580D01*
X141644856Y-84179580D02*
X141692475Y-84084342D01*
X141692475Y-84084342D02*
X141740094Y-83893866D01*
X141740094Y-83893866D02*
X141740094Y-83655771D01*
X141740094Y-83655771D02*
X141692475Y-83465295D01*
X141692475Y-83465295D02*
X141644856Y-83370057D01*
X141644856Y-83370057D02*
X141597237Y-83322438D01*
X141597237Y-83322438D02*
X141501999Y-83274819D01*
X144628951Y-101642152D02*
X144628951Y-102642152D01*
X144628951Y-101689771D02*
X144533713Y-101642152D01*
X144533713Y-101642152D02*
X144343237Y-101642152D01*
X144343237Y-101642152D02*
X144247999Y-101689771D01*
X144247999Y-101689771D02*
X144200380Y-101737390D01*
X144200380Y-101737390D02*
X144152761Y-101832628D01*
X144152761Y-101832628D02*
X144152761Y-102118342D01*
X144152761Y-102118342D02*
X144200380Y-102213580D01*
X144200380Y-102213580D02*
X144247999Y-102261200D01*
X144247999Y-102261200D02*
X144343237Y-102308819D01*
X144343237Y-102308819D02*
X144533713Y-102308819D01*
X144533713Y-102308819D02*
X144628951Y-102261200D01*
X143819427Y-101642152D02*
X143628951Y-102308819D01*
X143628951Y-102308819D02*
X143438475Y-101832628D01*
X143438475Y-101832628D02*
X143247999Y-102308819D01*
X143247999Y-102308819D02*
X143057523Y-101642152D01*
X142676570Y-102308819D02*
X142676570Y-101642152D01*
X142676570Y-101737390D02*
X142628951Y-101689771D01*
X142628951Y-101689771D02*
X142533713Y-101642152D01*
X142533713Y-101642152D02*
X142390856Y-101642152D01*
X142390856Y-101642152D02*
X142295618Y-101689771D01*
X142295618Y-101689771D02*
X142247999Y-101785009D01*
X142247999Y-101785009D02*
X142247999Y-102308819D01*
X142247999Y-101785009D02*
X142200380Y-101689771D01*
X142200380Y-101689771D02*
X142105142Y-101642152D01*
X142105142Y-101642152D02*
X141962285Y-101642152D01*
X141962285Y-101642152D02*
X141867046Y-101689771D01*
X141867046Y-101689771D02*
X141819427Y-101785009D01*
X141819427Y-101785009D02*
X141819427Y-102308819D01*
X140819428Y-102308819D02*
X141390856Y-102308819D01*
X141105142Y-102308819D02*
X141105142Y-101308819D01*
X141105142Y-101308819D02*
X141200380Y-101451676D01*
X141200380Y-101451676D02*
X141295618Y-101546914D01*
X141295618Y-101546914D02*
X141390856Y-101594533D01*
D11*
X150081714Y-95942838D02*
X148938857Y-95942838D01*
X149510286Y-97942838D02*
X149510286Y-95942838D01*
X148272190Y-97942838D02*
X148272190Y-95942838D01*
X148272190Y-95942838D02*
X147605523Y-97371409D01*
X147605523Y-97371409D02*
X146938857Y-95942838D01*
X146938857Y-95942838D02*
X146938857Y-97942838D01*
X146272190Y-95942838D02*
X145129333Y-95942838D01*
X145700762Y-97942838D02*
X145700762Y-95942838D01*
X143605523Y-96609504D02*
X143605523Y-97942838D01*
X144462666Y-96609504D02*
X144462666Y-97657123D01*
X144462666Y-97657123D02*
X144367428Y-97847600D01*
X144367428Y-97847600D02*
X144176952Y-97942838D01*
X144176952Y-97942838D02*
X143891237Y-97942838D01*
X143891237Y-97942838D02*
X143700761Y-97847600D01*
X143700761Y-97847600D02*
X143605523Y-97752361D01*
X141795999Y-97942838D02*
X141795999Y-96895219D01*
X141795999Y-96895219D02*
X141891237Y-96704742D01*
X141891237Y-96704742D02*
X142081713Y-96609504D01*
X142081713Y-96609504D02*
X142462666Y-96609504D01*
X142462666Y-96609504D02*
X142653142Y-96704742D01*
X141795999Y-97847600D02*
X141986475Y-97942838D01*
X141986475Y-97942838D02*
X142462666Y-97942838D01*
X142462666Y-97942838D02*
X142653142Y-97847600D01*
X142653142Y-97847600D02*
X142748380Y-97657123D01*
X142748380Y-97657123D02*
X142748380Y-97466647D01*
X142748380Y-97466647D02*
X142653142Y-97276171D01*
X142653142Y-97276171D02*
X142462666Y-97180933D01*
X142462666Y-97180933D02*
X141986475Y-97180933D01*
X141986475Y-97180933D02*
X141795999Y-97085695D01*
D10*
X144628951Y-98340152D02*
X144628951Y-99340152D01*
X144628951Y-98387771D02*
X144533713Y-98340152D01*
X144533713Y-98340152D02*
X144343237Y-98340152D01*
X144343237Y-98340152D02*
X144247999Y-98387771D01*
X144247999Y-98387771D02*
X144200380Y-98435390D01*
X144200380Y-98435390D02*
X144152761Y-98530628D01*
X144152761Y-98530628D02*
X144152761Y-98816342D01*
X144152761Y-98816342D02*
X144200380Y-98911580D01*
X144200380Y-98911580D02*
X144247999Y-98959200D01*
X144247999Y-98959200D02*
X144343237Y-99006819D01*
X144343237Y-99006819D02*
X144533713Y-99006819D01*
X144533713Y-99006819D02*
X144628951Y-98959200D01*
X143819427Y-98340152D02*
X143628951Y-99006819D01*
X143628951Y-99006819D02*
X143438475Y-98530628D01*
X143438475Y-98530628D02*
X143247999Y-99006819D01*
X143247999Y-99006819D02*
X143057523Y-98340152D01*
X142676570Y-99006819D02*
X142676570Y-98340152D01*
X142676570Y-98435390D02*
X142628951Y-98387771D01*
X142628951Y-98387771D02*
X142533713Y-98340152D01*
X142533713Y-98340152D02*
X142390856Y-98340152D01*
X142390856Y-98340152D02*
X142295618Y-98387771D01*
X142295618Y-98387771D02*
X142247999Y-98483009D01*
X142247999Y-98483009D02*
X142247999Y-99006819D01*
X142247999Y-98483009D02*
X142200380Y-98387771D01*
X142200380Y-98387771D02*
X142105142Y-98340152D01*
X142105142Y-98340152D02*
X141962285Y-98340152D01*
X141962285Y-98340152D02*
X141867046Y-98387771D01*
X141867046Y-98387771D02*
X141819427Y-98483009D01*
X141819427Y-98483009D02*
X141819427Y-99006819D01*
X141152761Y-98006819D02*
X141057523Y-98006819D01*
X141057523Y-98006819D02*
X140962285Y-98054438D01*
X140962285Y-98054438D02*
X140914666Y-98102057D01*
X140914666Y-98102057D02*
X140867047Y-98197295D01*
X140867047Y-98197295D02*
X140819428Y-98387771D01*
X140819428Y-98387771D02*
X140819428Y-98625866D01*
X140819428Y-98625866D02*
X140867047Y-98816342D01*
X140867047Y-98816342D02*
X140914666Y-98911580D01*
X140914666Y-98911580D02*
X140962285Y-98959200D01*
X140962285Y-98959200D02*
X141057523Y-99006819D01*
X141057523Y-99006819D02*
X141152761Y-99006819D01*
X141152761Y-99006819D02*
X141247999Y-98959200D01*
X141247999Y-98959200D02*
X141295618Y-98911580D01*
X141295618Y-98911580D02*
X141343237Y-98816342D01*
X141343237Y-98816342D02*
X141390856Y-98625866D01*
X141390856Y-98625866D02*
X141390856Y-98387771D01*
X141390856Y-98387771D02*
X141343237Y-98197295D01*
X141343237Y-98197295D02*
X141295618Y-98102057D01*
X141295618Y-98102057D02*
X141247999Y-98054438D01*
X141247999Y-98054438D02*
X141152761Y-98006819D01*
X151209333Y-84798819D02*
X151209333Y-85513104D01*
X151209333Y-85513104D02*
X151256952Y-85655961D01*
X151256952Y-85655961D02*
X151352190Y-85751200D01*
X151352190Y-85751200D02*
X151495047Y-85798819D01*
X151495047Y-85798819D02*
X151590285Y-85798819D01*
X150780761Y-84894057D02*
X150733142Y-84846438D01*
X150733142Y-84846438D02*
X150637904Y-84798819D01*
X150637904Y-84798819D02*
X150399809Y-84798819D01*
X150399809Y-84798819D02*
X150304571Y-84846438D01*
X150304571Y-84846438D02*
X150256952Y-84894057D01*
X150256952Y-84894057D02*
X150209333Y-84989295D01*
X150209333Y-84989295D02*
X150209333Y-85084533D01*
X150209333Y-85084533D02*
X150256952Y-85227390D01*
X150256952Y-85227390D02*
X150828380Y-85798819D01*
X150828380Y-85798819D02*
X150209333Y-85798819D01*
X141557333Y-84798819D02*
X141557333Y-85513104D01*
X141557333Y-85513104D02*
X141604952Y-85655961D01*
X141604952Y-85655961D02*
X141700190Y-85751200D01*
X141700190Y-85751200D02*
X141843047Y-85798819D01*
X141843047Y-85798819D02*
X141938285Y-85798819D01*
X140557333Y-85798819D02*
X141128761Y-85798819D01*
X140843047Y-85798819D02*
X140843047Y-84798819D01*
X140843047Y-84798819D02*
X140938285Y-84941676D01*
X140938285Y-84941676D02*
X141033523Y-85036914D01*
X141033523Y-85036914D02*
X141128761Y-85084533D01*
D12*
%TO.C,J2*%
X151070000Y-85090000D02*
X153730000Y-85090000D01*
X151070000Y-102930000D02*
X151070000Y-85090000D01*
X151070000Y-102930000D02*
X153730000Y-102930000D01*
X152400000Y-82490000D02*
X153730000Y-82490000D01*
X153730000Y-82490000D02*
X153730000Y-83820000D01*
X153730000Y-102930000D02*
X153730000Y-85090000D01*
%TO.C,J1*%
X138370000Y-85090000D02*
X141030000Y-85090000D01*
X138370000Y-102930000D02*
X138370000Y-85090000D01*
X138370000Y-102930000D02*
X141030000Y-102930000D01*
X139700000Y-82490000D02*
X141030000Y-82490000D01*
X141030000Y-82490000D02*
X141030000Y-83820000D01*
X141030000Y-102930000D02*
X141030000Y-85090000D01*
%TD*%
%LPC*%
D13*
%TO.C,J4*%
X145320000Y-94615000D03*
D14*
X147320000Y-94615000D03*
X149320000Y-94615000D03*
%TD*%
D15*
%TO.C,CN1*%
X149850000Y-90216000D03*
D16*
X147310000Y-90216000D03*
X144770000Y-90216000D03*
X142230000Y-90216000D03*
%TD*%
D15*
%TO.C,CN2*%
X149860000Y-100330000D03*
D16*
X147320000Y-100330000D03*
X144780000Y-100330000D03*
X142240000Y-100330000D03*
%TD*%
D13*
%TO.C,J3*%
X145320000Y-84455000D03*
D14*
X147320000Y-84455000D03*
X149320000Y-84455000D03*
%TD*%
D17*
%TO.C,J2*%
X152400000Y-83820000D03*
D18*
X152400000Y-86360000D03*
X152400000Y-88900000D03*
X152400000Y-91440000D03*
X152400000Y-93980000D03*
X152400000Y-96520000D03*
X152400000Y-99060000D03*
X152400000Y-101600000D03*
%TD*%
D17*
%TO.C,J1*%
X139700000Y-83820000D03*
D18*
X139700000Y-86360000D03*
X139700000Y-88900000D03*
X139700000Y-91440000D03*
X139700000Y-93980000D03*
X139700000Y-96520000D03*
X139700000Y-99060000D03*
X139700000Y-101600000D03*
%TD*%
%LPD*%
M02*
